<svg height="35" viewBox="0 0 103 18" fill="none" xmlns="http://www.w3.org/2000/svg">
<path fill-rule="evenodd" clip-rule="evenodd" d="M89.8042 16.2702C89.8042 17.2256 89.0309 18 88.0767 18C87.1224 18 86.3493 17.2256 86.3493 16.2702V8.12488C86.3493 7.16937 87.1224 6.39494 88.0767 6.39494C89.0309 6.39494 89.8042 7.16937 89.8042 8.12488V16.2702ZM90.3075 2.23384C90.3075 3.46774 89.3088 4.46767 88.0767 4.46767C86.8445 4.46767 85.8459 3.46774 85.8459 2.23384C85.8459 0.999938 86.8445 0 88.0767 0C89.3088 0 90.3075 0.999938 90.3075 2.23384ZM95.1723 8.04151V8.32485C95.5889 7.64832 96.1783 7.1265 96.9406 6.7591C97.7024 6.39228 98.5794 6.20858 99.5713 6.20858C100.304 6.20858 100.898 6.34173 101.351 6.60803C101.803 6.87477 102.152 7.22017 102.396 7.64468C102.641 8.06962 102.802 8.5339 102.882 9.03751C102.96 9.54156 103 10.0308 103 10.5058V17.9648H99.5497V11.391C99.5497 10.6429 99.4096 10.0991 99.1293 9.76095C98.8489 9.42254 98.4788 9.25326 98.0187 9.25326C97.7742 9.25326 97.5262 9.30381 97.2748 9.40433C97.023 9.50529 96.7858 9.64572 96.5632 9.82563C96.3399 10.0057 96.1352 10.2179 95.9487 10.4624C95.7615 10.7077 95.6176 10.9736 95.5172 11.2617V17.9648H92.0669V7.99824V7.95905C92.0773 7.12679 92.7391 6.45361 93.566 6.42447H93.676C94.4879 6.45303 95.1397 7.10377 95.1723 7.91564V8.04151ZM32.4581 9.84702C32.2135 9.11994 31.876 8.49031 31.4446 7.95728C31.0134 7.42511 30.4991 7.00381 29.903 6.6941C29.306 6.38497 28.6485 6.22996 27.9298 6.22996C27.0672 6.22996 26.3232 6.41337 25.6978 6.78048C25.0723 7.14759 24.5727 7.65528 24.1989 8.30268V1.74015H24.1968C24.1968 1.73519 24.1977 1.73068 24.1977 1.72572C24.1977 0.772694 23.4261 1.44487e-05 22.4744 1.44487e-05C21.5225 1.44487e-05 20.7511 0.772694 20.7511 1.72572C20.7511 1.73068 20.7518 1.73519 20.7518 1.74015H20.7487V17.9861H20.8469V17.988H24.1785V16.5045C24.4885 16.8852 24.8575 17.2006 25.2881 17.448C25.9275 17.8148 26.6789 17.9985 27.5416 17.9985C28.289 17.9985 28.9864 17.8505 29.6332 17.5556C30.2802 17.2606 30.8409 16.8505 31.3153 16.3249C31.7896 15.7996 32.1595 15.1803 32.4259 14.4679C32.6917 13.7553 32.8248 12.9886 32.8248 12.1681C32.8248 11.3474 32.7026 10.574 32.4581 9.84702ZM29.0942 13.3232C28.9647 13.6762 28.7816 13.9818 28.5443 14.2411C28.307 14.5001 28.0192 14.7053 27.6816 14.8566C27.3439 15.0077 26.9735 15.0833 26.571 15.0833C26.0967 15.0833 25.6438 14.943 25.2127 14.6623C24.7812 14.3814 24.4434 13.9965 24.1989 13.5069V11.1316C24.4434 10.5705 24.792 10.1025 25.2447 9.728C25.6978 9.35404 26.1971 9.16685 26.7436 9.16685C27.1173 9.16685 27.4585 9.24595 27.7678 9.40416C28.077 9.56265 28.3466 9.77855 28.5766 10.052C28.8063 10.3256 28.9826 10.6458 29.1048 11.0127C29.227 11.38 29.2883 11.7652 29.2883 12.1681C29.2883 12.5859 29.2236 12.9707 29.0942 13.3232ZM50.7663 8.06283V8.34603C51.1831 7.66965 51.7725 7.14768 52.5348 6.78043C53.2964 6.41346 54.1735 6.22991 55.1654 6.22991C55.8987 6.22991 56.4917 6.36306 56.9445 6.62936C57.3973 6.89595 57.7457 7.24135 57.9903 7.66586C58.235 8.09081 58.3965 8.55508 58.4758 9.05869C58.5545 9.56274 58.594 10.0519 58.594 10.527V17.986H55.1437V11.4121C55.1437 10.6642 55.0038 10.1204 54.7235 9.78213C54.443 9.44387 54.0728 9.27444 53.6128 9.27444C53.3683 9.27444 53.1202 9.32499 52.869 9.42566C52.617 9.52661 52.3799 9.6669 52.1573 9.84696C51.9341 10.0269 51.7294 10.2391 51.5428 10.4837C51.3555 10.7289 51.2116 10.9949 51.1114 11.2831V17.986H47.661V8.01957V7.98023C47.6714 7.14812 48.3332 6.47479 49.1602 6.4458H49.27C50.082 6.47435 50.7337 7.1251 50.7663 7.93682V8.06283ZM17.6221 7.98995C17.1045 7.45007 16.4718 7.02177 15.7245 6.70477C14.9766 6.38836 14.1212 6.22986 13.1582 6.22986C12.195 6.22986 11.3359 6.38836 10.5813 6.70477C9.82652 7.02177 9.19046 7.45371 8.67283 8.00073C8.1552 8.5479 7.75964 9.18481 7.48671 9.91174C7.21349 10.6387 7.07703 11.4122 7.07703 12.233C7.07703 12.895 7.18003 13.5323 7.38574 14.1452C7.21742 14.393 6.99163 14.6023 6.70241 14.77C6.34292 14.9792 5.94764 15.0833 5.51628 15.0833C5.17134 15.0833 4.84415 15.0114 4.535 14.8674C4.22585 14.7235 3.95627 14.5216 3.72655 14.2629C3.62384 14.1475 3.45042 13.9042 3.45042 13.0001V1.73363C3.45086 0.772593 2.67922 5.83506e-05 1.72747 5.83506e-05C0.778044 5.83506e-05 0.00814736 0.769242 0.00451028 1.71892L0 13.9333C0 14.9543 0.617722 15.7587 1.06319 16.2169C1.58795 16.7566 2.22778 17.1887 2.9824 17.5127C3.23205 17.6197 3.49349 17.7074 3.76438 17.7793C4.31241 17.9244 4.90293 17.9985 5.53796 17.9985C6.84586 17.9985 7.95647 17.7178 8.86967 17.1561C9.03698 17.0532 9.19323 16.9431 9.34395 16.8296C9.72148 17.1054 10.1377 17.3435 10.6028 17.5341C11.3576 17.8434 12.2094 17.9985 13.1582 17.9985C14.4663 17.9985 15.5876 17.7178 16.5224 17.1561C17.4568 16.5949 18.1467 15.868 18.5925 14.9752L15.6598 14.1548C15.5654 14.4039 15.4161 14.6221 15.212 14.8095C15.0738 14.9365 14.9101 15.0492 14.7216 15.148C14.2541 15.3929 13.7693 15.515 13.266 15.515C12.6332 15.515 12.0693 15.3174 11.5733 14.9215C11.0774 14.5257 10.8002 13.946 10.7429 13.183H19.1101C19.1386 13.0395 19.1603 12.8698 19.1748 12.6757C19.1888 12.4814 19.1962 12.2835 19.1962 12.0819C19.1962 11.3044 19.0632 10.5631 18.7973 9.8577C18.5314 9.15261 18.1396 8.52969 17.6221 7.98995ZM10.6782 11.0453C10.75 10.3402 11.0052 9.77495 11.4439 9.35001C11.882 8.9255 12.4392 8.71325 13.115 8.71325C13.7764 8.71325 14.3297 8.922 14.7754 9.33937C15.221 9.75703 15.4798 10.3256 15.5519 11.0453H10.6782ZM84.0832 9.88985C83.81 9.17763 83.4147 8.55106 82.8971 8.01132C82.3798 7.47158 81.7468 7.0395 80.9996 6.71566C80.2519 6.3921 79.3963 6.22996 78.4334 6.22996C77.47 6.22996 76.6111 6.3921 75.8564 6.71566C75.1015 7.0395 74.4655 7.47158 73.9478 8.01132C73.4305 8.55106 73.0384 9.17763 72.7726 9.88985C72.5065 10.6025 72.3737 11.3474 72.3737 12.1249C72.3737 12.9023 72.5065 13.6472 72.7726 14.3599C73.0384 15.0727 73.4305 15.6986 73.9478 16.2384C74.4655 16.7786 75.1015 17.207 75.8564 17.5234C76.6111 17.8398 77.47 17.9985 78.4334 17.9985C79.3963 17.9985 80.2554 17.8398 81.0103 17.5234C81.7651 17.207 82.4011 16.7786 82.9188 16.2384C83.4364 15.6986 83.8278 15.0727 84.094 14.3599C84.3599 13.6472 84.493 12.9023 84.493 12.1249C84.493 11.3474 84.3561 10.6025 84.0832 9.88985ZM80.7407 13.3232C80.6113 13.6905 80.4351 14.0038 80.2123 14.2628C79.9893 14.5217 79.7272 14.7235 79.4253 14.8675C79.1234 15.0113 78.7924 15.0833 78.4334 15.0833C77.7001 15.0833 77.0964 14.8134 76.6218 14.2736C76.1475 13.7339 75.9104 13.0176 75.9104 12.1249C75.9104 11.6932 75.975 11.2938 76.1045 10.9265C76.2338 10.5595 76.4096 10.2465 76.6329 9.98731C76.8555 9.728 77.1213 9.52653 77.4306 9.3826C77.7396 9.23881 78.0739 9.16685 78.4334 9.16685C79.1519 9.16685 79.7488 9.43664 80.2231 9.97653C80.6977 10.5163 80.9348 11.2324 80.9348 12.1249C80.9348 12.5569 80.8702 12.9564 80.7407 13.3232ZM44.4049 8.01132C43.8873 7.47158 43.2545 7.0395 42.5071 6.71566C41.7595 6.3921 40.9039 6.22996 39.9409 6.22996C38.9777 6.22996 38.1189 6.3921 37.3638 6.71566C36.6094 7.0395 35.973 7.47158 35.4557 8.01132C34.9379 8.55106 34.546 9.17763 34.2802 9.88985C34.0141 10.6025 33.8813 11.3474 33.8813 12.1249C33.8813 12.9023 34.0141 13.6472 34.2802 14.3599C34.546 15.0727 34.9379 15.6986 35.4557 16.2384C35.973 16.7786 36.6094 17.207 37.3638 17.5234C38.1189 17.8398 38.9777 17.9985 39.9409 17.9985C40.9039 17.9985 41.7633 17.8398 42.5179 17.5234C43.2728 17.207 43.9087 16.7786 44.4263 16.2384C44.944 15.6986 45.3356 15.0727 45.6017 14.3599C45.8676 13.6472 46.0006 12.9023 46.0006 12.1249C46.0006 11.3474 45.8638 10.6025 45.5911 9.88985C45.3177 9.17763 44.9226 8.55106 44.4049 8.01132ZM42.2483 13.3232C42.119 13.6905 41.9426 14.0038 41.7201 14.2628C41.4969 14.5217 41.2349 14.7235 40.9328 14.8675C40.6311 15.0113 40.3001 15.0833 39.9409 15.0833C39.2077 15.0833 38.6039 14.8134 38.1297 14.2736C37.6552 13.7339 37.4178 13.0176 37.4178 12.1249C37.4178 11.6932 37.4826 11.2938 37.612 10.9265C37.7414 10.5595 37.9173 10.2465 38.1403 9.98731C38.363 9.728 38.629 9.52653 38.9383 9.3826C39.2473 9.23881 39.5814 9.16685 39.9409 9.16685C40.6598 9.16685 41.2564 9.43664 41.7308 9.97653C42.2052 10.5163 42.4425 11.2324 42.4425 12.1249C42.4425 12.5569 42.3778 12.9564 42.2483 13.3232ZM67.4354 14.77C67.0759 14.9792 66.6807 15.0833 66.2493 15.0833C65.9044 15.0833 65.5772 15.0113 65.2682 14.8675C64.9589 14.7236 64.6893 14.5217 64.4596 14.2628C64.2293 14.0038 64.0499 13.6906 63.9204 13.3232C63.7911 12.9565 63.7263 12.5498 63.7263 12.1034C63.7263 11.211 63.9668 10.4985 64.4488 9.9657C64.9302 9.4331 65.5302 9.1668 66.2493 9.1668C67.1119 9.1668 67.766 9.52663 68.2116 10.2464L71.5757 9.23163C71.13 8.33891 70.4615 7.61562 69.5704 7.06145C68.6789 6.50729 67.5789 6.22992 66.271 6.22992C65.3076 6.22992 64.4488 6.38842 63.6939 6.70483C62.9393 7.02168 62.3032 7.45012 61.7854 7.99001C61.2678 8.52975 60.8724 9.15573 60.5995 9.86854C60.3261 10.5811 60.1898 11.3259 60.1898 12.1034C60.1898 12.8809 60.3261 13.6257 60.5995 14.3384C60.8724 15.0508 61.2713 15.6772 61.7962 16.2169C62.321 16.7567 62.9608 17.1886 63.7154 17.5126C64.4702 17.8367 65.3221 17.9984 66.271 17.9984C67.5789 17.9984 68.6895 17.7177 69.6027 17.1561C70.5155 16.5948 71.1802 15.875 71.5973 14.9972L68.2331 13.9604C68.0609 14.2919 67.7946 14.5617 67.4354 14.77Z" fill="#FE6E14"/>
</svg>
