<svg width="282" height="331" viewBox="0 0 282 331" fill="none" xmlns="http://www.w3.org/2000/svg">
<path fill-rule="evenodd" clip-rule="evenodd" d="M247.146 100.674C249.257 98.4678 253.477 89.8352 253.573 87.4372C253.765 83.6005 248.297 82.2577 249.928 80.0515C251.031 78.5169 253.669 78.7566 254.293 77.222C255.156 75.2556 255.012 72.9536 254.677 71.2271C254.293 69.1169 249.449 70.7475 248.058 67.822C247.098 65.7118 249.497 62.6904 251.703 63.074C254.197 63.5057 254.101 66.0955 258.322 65.6159C261.775 65.2322 261.008 63.8893 262.83 61.971C264.125 62.7863 266.188 63.122 268.49 63.074C270.361 63.074 271.56 63.9373 271.943 64.7046C272.135 65.0404 272.663 66.1914 271.703 69.2128C271.224 70.6036 270.313 72.3781 269.641 73.673C269.545 73.8169 267.771 77.3179 266.428 80.5791C265.564 82.6413 264.509 86.2383 264.077 88.5883C263.646 90.9382 263.981 92.7127 262.495 97.125C262.351 97.6046 261.775 99.1393 261.343 101.681C261.008 103.599 261.2 105.662 262.447 107.244C262.926 107.82 263.742 108.635 263.646 109.307C263.55 109.978 261.391 110.793 260.432 111.513C260.048 111.8 257.123 112.999 253.813 111.369C252.806 110.554 251.847 109.355 250.887 108.06C250.36 107.292 253.813 105.662 253.382 104.894C251.847 102.161 246.859 100.578 247.146 100.674Z" fill="black" stroke="#FE6E14"/>
<path fill-rule="evenodd" clip-rule="evenodd" d="M73.3356 255.202C70.3918 253.807 67.6411 252.268 66.0968 250.536C65.5177 251.354 64.1182 252.556 63.5873 252.412C62.96 252.268 63.346 250.344 63.3943 250.007C63.7321 247.65 63.2978 246.639 62.6704 246.255C61.8983 245.774 60.7883 245.87 60.3057 245.822C58.4719 245.677 57.1206 244.09 56.6381 242.983C57.6032 242.743 60.0644 241.252 61.6087 239.712C62.4291 238.895 62.6704 237.836 62.8152 236.97C62.96 236.008 62.8634 235.479 63.4426 234.421C63.9251 233.459 64.4077 232.881 64.7938 231.967C65.5659 230.043 66.0968 226.772 66.4829 224.752C66.7242 223.645 67.062 221.769 67.3515 220.181C67.7858 217.824 68.2202 215.515 68.5097 213.832C69.0406 210.753 69.0888 210.127 69.3301 208.299C69.4266 207.578 70.0057 206.231 70.3436 205.75C71.2605 204.499 73.9147 203.97 74.156 203.729C74.6869 203.248 74.7351 202.238 74.4456 201.372C73.7699 199.256 71.6948 199.159 69.861 199.785C70.9709 196.033 71.3087 195.744 72.2739 194.301C73.0461 192.425 73.2391 189.153 73.2391 187.47C73.2873 183.092 73.5286 177.56 72.4187 175.828C77.0033 175.01 79.8505 180.639 80.5744 182.563C83.1804 189.586 84.8212 191.655 85.4968 191.126C84.9177 188.384 83.8078 183.477 82.9874 181.793C88.2476 180.735 89.454 185.161 90.0331 186.075C90.7088 187.037 92.7839 189.202 93.8456 188.721C97.0307 187.277 100.071 185.786 102.773 184.391C103.883 183.814 102.725 179.917 103.739 179.388C104.704 178.907 105.235 178.137 105.959 177.656C107.213 176.838 108.468 176.406 109.578 175.876C110.302 175.54 109.481 173.664 110.157 172.509C110.977 171.114 113.342 170.392 113.921 170.681C114.259 170.825 114.838 171.018 115.176 171.98C115.61 173.134 115.803 175.059 116.238 175.251C116.962 175.588 117.782 174.241 118.844 174.048C119.905 173.856 121.16 174.818 121.787 175.299C122.511 175.828 123.67 175.203 124.249 175.828C126.131 177.849 126.662 186.171 126.565 188.239C128.013 189.442 129.557 190.116 130.426 190.885C131.391 191.751 131.487 192.665 131.439 192.713C130.474 193.772 129.654 195.551 128.592 197.043C126.517 199.977 124.104 202.575 123.67 203.537C123.09 204.692 120.677 204.403 120.291 205.365C119.519 207.241 120.05 209.069 120.05 209.502C120.002 210.512 117.541 211.09 117.348 212.533C117.155 213.928 118.892 217.343 117.878 218.546C116.141 220.663 107.551 221.047 105.331 221.961C104.656 222.25 104.511 223.164 103.787 223.26C100.65 223.597 98.8162 224.559 97.9476 225.377C96.8859 226.435 92.0118 223.212 91.3361 224.944C89.7919 228.744 91.7222 235.046 91.5774 236.441C93.5078 237.596 95.6794 239.424 96.2103 242.118C96.8376 245.004 93.7008 251.017 91.2879 252.508C89.454 253.615 88.1028 258.185 88.3924 260.398C87.7167 260.638 87.2341 260.734 86.5103 260.783C85.5451 260.831 84.2904 260.638 83.1804 260.301C82.4565 260.061 81.8292 258.57 81.5879 257.896C81.2983 256.934 80.2366 256.453 79.561 256.453C77.0033 256.501 73.7217 255.395 73.3356 255.202Z" fill="black" stroke="#FE6E14"/>
<path fill-rule="evenodd" clip-rule="evenodd" d="M183.232 145.539C182.703 144.479 182.463 142.937 182.079 141.78C181.839 141.105 181.503 140.527 181.118 140.431C180.206 140.141 179.197 140.286 178.141 140.334C176.892 140.334 175.643 140.286 174.539 140.19C172.089 139.997 170.216 139.37 168.775 138.599C167.767 138.069 167.142 137.539 166.758 137.25C166.038 138.166 165.461 138.551 164.693 138.888C163.492 139.37 159.794 138.792 158.929 139.804C158.305 140.575 158.737 142.358 158.641 143.419C158.545 144.623 158.401 144.623 158.257 144.816C157.537 146.31 153.502 145.78 152.83 147.226C152.446 147.997 152.158 149.443 151.917 150.262C151.725 150.937 151.629 151.033 151.341 151.322C152.878 153.202 156.336 153.78 157.345 155.66C158.305 157.395 157.633 159.756 157.873 160.864C159.266 167.178 154.415 165.154 154.127 168.238C153.742 172.238 157.345 177.78 157.248 179.997C157.152 181.443 152.446 182.166 150.573 183.949C148.075 186.262 148.267 190.069 148.267 191.274C148.267 192.816 147.115 194.262 146.49 195.081C146.682 196.142 146.922 197.154 147.163 197.973C147.595 199.467 147.739 201.539 147.835 202.551C148.027 204.575 148.027 204.865 148.748 205.154C149.132 205.298 149.612 204.672 150.14 204.19C150.525 203.853 150.909 203.612 151.149 203.563C151.629 203.419 152.398 203.178 153.166 203.033C154.031 202.889 154.895 202.889 155.423 202.599C158.785 200.913 158.737 195.515 160.13 195.66C161.955 195.852 163.396 197.925 164.02 198.937C165.749 201.732 166.038 203.371 166.326 203.997C166.614 202.792 167.334 201.298 167.719 200.72C168.487 199.563 169.448 198.118 170.648 197.587C170.84 197.491 171.177 197.443 171.369 197.395C171.705 197.298 171.993 197.154 172.281 197.057C172.906 196.865 173.482 196.575 174.058 196.431C174.298 196.383 174.539 196.383 174.731 196.383C175.547 196.286 176.412 197.636 177.372 198.551C177.9 199.081 178.429 199.274 178.669 199.226C178.957 199.178 179.485 198.407 179.87 197.925C180.062 197.684 180.302 197.587 180.35 197.587C180.878 197.491 182.607 198.985 183.28 199.419C185.537 200.865 186.594 201.346 187.698 202.069C187.602 201.539 187.458 200.527 187.458 200.286C187.89 195.467 195.623 197.539 195.142 192.816C194.854 190.166 202.683 186.358 200.378 186.262C198.889 186.214 197.592 186.166 196.535 186.118C195.094 186.021 198.12 181.539 196.775 181.587C195.094 181.636 193.51 181.78 192.117 182.069C186.978 183.226 186.257 182.117 187.026 177.587C187.794 172.768 182.607 170.262 182.223 168.961C180.782 164.238 183.28 164.527 183.76 161.298C184.096 159.081 182.751 156.093 183.136 155.322C183.472 154.648 185.393 153.105 186.786 153.105C186.93 152.72 187.026 152.334 187.218 151.708C187.362 151.274 187.41 150.503 187.266 150.166C186.978 149.395 185.873 148.575 184.961 147.756C184.336 146.985 183.664 146.31 183.232 145.539Z" fill="black" stroke="#FE6E14"/>
<path fill-rule="evenodd" clip-rule="evenodd" d="M118.544 77.8111C117.863 76.2737 120.297 74.5921 119.664 74.1597C118.252 73.1027 116.597 71.9016 115.088 70.9888C113.724 70.172 112.604 70.6044 111.728 70.0279C109.537 68.5865 110.608 59.9866 108.807 58.0168C107.541 56.6715 108.904 54.3173 107.784 53.1643C107.249 52.6358 106.664 52.5877 106.129 52.2514C103.597 54.6537 100.481 57.0078 98.241 57.7285C94.638 58.9296 88.3084 54.8939 86.2635 54.1732C84.8515 53.6928 82.3197 53.1162 80.9077 53.8369C78.7167 54.9419 78.668 57.2961 77.9376 57.152C76.7204 56.9117 75.3084 50.8581 75.0163 49.8492C74.6755 48.6001 77.1586 47.6392 77.1586 46.1978C77.1586 45.2369 75.6492 43.4593 74.6755 43.5554C73.8964 43.6515 71.1698 44.9006 70.6829 45.1409C69.5631 45.7654 67.1286 44.9487 66.2035 44.3721C64.4994 43.3152 61.6267 41.1532 61.5294 41.3934C61.3833 41.7777 63.1848 44.6604 64.1099 45.9096C63.9638 48.0716 64.8402 51.2425 65.814 53.1643C66.3983 54.5095 67.3721 55.4704 68.1024 56.6715C69.0275 58.2089 69.1736 59.2659 69.3683 60.5631C69.7578 63.0614 69.3196 65.6558 69.1736 66.3285C68.0537 67.7217 67.7129 69.6435 68.4432 70.9407C69.5144 72.9586 71.7054 74.5921 72.7766 75.0726C71.2672 75.9854 69.3196 77.3306 68.1024 77.9552C68.005 79.7329 67.859 81.3664 68.7354 81.9429C69.3683 82.3753 72.4358 80.6937 73.2635 80.2613C74.9676 79.3485 76.1848 79.2524 77.1099 79.3485C78.5219 79.4926 79.1062 80.934 79.3496 81.2222C80.9077 80.1172 88.4545 80.7898 92.6418 80.5977C95.0275 80.5016 93.9564 78.9161 96.683 78.9641C98.9714 79.0122 100.091 84.3932 102.331 84.4893C103.84 84.5373 105.009 82.9038 106.47 82.7116C109.245 82.4233 109.05 90.5909 114.065 89.3898C115.964 88.9574 117.473 89.0054 118.544 89.63C118.398 88.4289 118.252 87.3239 118.544 86.2669C118.983 84.7775 121.563 84.153 121.417 82.3273C121.32 80.6457 119.031 78.82 118.544 77.8111Z" fill="black" stroke="#FE6E14"/>
<path fill-rule="evenodd" clip-rule="evenodd" d="M166.797 137.984C166.942 136.867 167.088 135.702 167.039 134.488C166.991 131.332 165.634 127.884 164.761 125.359C162.919 119.872 163.646 112.151 163.258 108.947C162.967 106.13 169.269 101.663 168.736 99.3807C168.106 96.6615 166.264 94.525 165.682 94.0394C165.876 94.0394 166.361 93.9908 166.506 93.2139C166.797 91.9028 166.555 89.6692 167.67 88.6495C167.96 88.4067 168.154 88.1639 168.494 88.0182C169.318 87.6783 170.481 87.6783 171.693 87.4355C172.905 87.1927 174.65 86.8528 175.619 86.1245C175.765 86.4158 176.007 86.8043 176.25 87.1927C176.492 87.5812 176.734 87.9211 176.88 88.4552C177.849 92.2427 178.189 93.8451 179.206 94.5735C180.079 95.2048 182.163 95.9817 182.745 96.71C184.054 98.361 185.314 101.906 186.526 102.197C186.866 102.294 187.205 102.537 187.593 102.246C188.611 101.469 189.629 100.789 190.453 100.74C191.519 100.643 193.555 100.837 195.106 100.595C195.591 100.546 196.124 100.206 196.609 100.109C197.481 99.9634 198.354 101.129 199.081 101.177C200.487 101.274 201.941 97.7298 202.911 97.7298C203.977 97.7298 205.431 99.2836 206.546 101.663C207.322 103.265 207.807 105.256 208.34 107.247C208.485 107.684 208.679 108.024 208.825 108.218C209.018 108.51 209.309 108.024 209.891 108.267C211.782 109.044 213.236 111.909 215.078 112.977C215.563 113.268 216.338 112.346 216.92 111.035C217.55 111.52 219.101 113.511 218.568 114.773C218.423 115.113 218.277 115.55 218.277 115.987C218.374 116.813 219.053 117.638 219.537 118.61C219.828 119.095 220.265 119.823 220.216 120.6C220.168 121.669 218.471 124.048 217.938 125.116C217.502 125.942 214.932 129.972 215.611 131.623C215.756 131.963 215.902 132.448 216.096 132.788C216.871 134.148 218.18 135.362 219.295 136.333C220.071 137.013 219.295 139.392 218.907 140.655C218.519 141.869 216.726 145.802 216.823 147.938C216.338 147.744 215.272 147.259 214.205 146.822C213.381 146.53 211.442 145.122 210.909 145.705C210.133 146.53 208.582 147.744 208.437 148.084C208.146 148.764 208.049 149.444 207.952 150.415C207.904 150.997 207.855 151.872 207.758 152.6C207.71 153.085 207.613 153.571 207.564 154.008C207.516 154.445 207.37 154.639 207.225 154.931C207.128 155.125 206.789 155.61 206.449 155.853C206.158 156.096 205.868 155.902 205.674 155.659C205.625 155.61 205.431 155.173 205.674 154.494C205.771 154.202 205.819 153.96 205.868 153.717C205.916 153.522 205.965 153.328 205.868 153.134C205.771 152.94 205.528 153.085 205.286 153.037C204.559 152.94 203.638 152.648 203.298 152.551C202.717 152.406 202.087 152.26 201.214 152.163C201.02 152.163 199.857 152.066 199.227 152.746C198.839 153.183 198.596 153.814 198.354 154.542C198.16 155.028 197.966 155.659 197.724 156.145C197.53 156.533 197.045 156.873 196.706 157.164C196.221 157.553 194.767 158.524 193.7 158.767C193.216 158.864 192.634 159.058 192.101 159.009C191.18 158.961 190.598 158.524 189.968 157.553C189.483 156.824 189.095 155.999 188.562 155.173C188.223 154.639 187.641 154.105 186.914 154.057C187.011 153.377 187.496 152.794 187.447 151.483C187.447 150.123 184.636 148.958 183.278 146.627C182.067 144.588 182.454 141.237 180.467 141.189C178.819 141.189 174.844 141.383 171.644 140.606C168.833 139.829 166.603 138.13 166.797 137.984Z" fill="black" stroke="#FE6E14"/>
<path fill-rule="evenodd" clip-rule="evenodd" d="M62.5968 74.6952C63.0817 75.743 62.6938 76.9337 62.7907 77.9339C62.3058 78.3149 57.5539 77.8386 54.7899 77.7434C54.499 76.4098 53.6747 75.7907 52.6079 75.743C50.4259 75.743 46.6437 78.6959 44.9465 78.4578C43.8798 78.3149 43.1524 77.0766 42.1341 75.5525C41.3098 74.3142 40.243 72.8854 39.0308 71.8376C37.2367 70.1707 34.1334 69.9326 32.7756 69.7897C30.7876 69.5992 29.1389 69.6944 28.4601 69.8373C24.7748 73.4093 23.6596 73.9332 22.3989 73.838C21.2836 73.7903 19.9259 71.6471 18.9561 71.5519C17.9378 71.4566 14.3011 72.7426 13.5737 72.7902C10.2279 73.0283 8.5793 73.3617 6.73669 74.2666C4.94258 75.1239 3.58487 76.3146 2.71205 77.3147C1.64528 78.5054 1.88773 80.2199 2.71205 81.0296C3.00299 81.3154 3.73033 81.5535 4.65164 81.3154C5.86388 81.0296 6.97914 80.0771 8.62779 80.1247C10.131 80.1723 11.1008 81.0296 11.3432 81.363C11.8281 82.0298 11.8281 82.9347 11.7796 83.3157C11.6826 84.6016 10.4704 84.7921 9.0642 84.6016C8.04591 84.4587 6.88216 84.1253 6.00935 83.8396C5.282 83.6014 4.74862 83.6014 4.45768 83.5538C3.92429 83.4109 3.00299 85.7923 3.4394 86.6019C3.77882 87.2211 6.78518 86.6019 8.87024 86.9353C9.40362 87.0306 10.034 87.2687 10.3734 87.5544C10.7613 87.8878 10.8583 88.3641 10.9068 88.507C11.1493 89.0785 10.6644 91.317 9.40362 91.4598C8.67628 91.5551 7.36706 90.8407 6.2518 90.3644C5.23351 89.9834 4.40919 89.8405 4.06976 89.9358C3.63336 90.0787 3.8758 90.6026 3.97278 90.8407C5.81539 93.9364 8.72477 98.9372 10.0825 98.9372C11.4887 98.9372 12.8949 96.794 13.7677 94.9366C14.3011 95.651 14.9799 96.5559 15.6588 96.6511C16.7256 96.794 18.5682 95.5557 19.344 95.7462C20.7987 96.0796 20.6532 97.7466 21.817 100.08C22.3019 101.033 23.7566 100.795 24.3384 100.842C24.9688 100.89 25.6477 101.938 26.375 102.652C26.9084 103.128 27.5388 103.319 27.9752 103.366C29.6723 103.509 32.1938 101.366 33.6485 101.985C35.1031 102.604 32.6302 107.415 32.4362 108.891C32.2423 110.415 33.4545 113.368 34.7637 113.082C35.5396 112.939 33.8424 111.654 36.8488 107.796C37.2852 107.224 39.7097 105.557 41.5523 106.415C45.7224 108.415 48.8742 109.891 50.0864 110.701C49.65 111.558 49.3591 112.606 49.1167 113.273C50.0864 113.368 51.9775 113.035 54.2566 111.082C55.5173 110.034 57.5054 108.51 58.9116 107.129C60.2208 105.795 64.5849 107.51 65.8456 106.034C66.6214 105.081 67.6397 102.747 69.1429 102.366C71.6643 101.7 74.8162 103.224 75.398 101.366C75.592 100.652 75.6405 98.6515 76.6588 97.7466C78.065 96.5083 80.538 96.3178 80.1985 95.1271C78.9863 91.3646 77.3861 84.6016 80.4895 82.4108C79.8591 81.5059 79.4227 80.2199 76.8043 80.5533C74.7192 80.8391 71.9553 83.2204 70.1127 83.1252C68.9004 83.0775 69.1914 80.5057 69.2884 79.1245C68.755 79.4579 68.1246 79.4103 67.5427 79.315C65.7971 78.9816 63.0817 75.362 62.5968 74.6952Z" fill="black" stroke="#FE6E14" stroke-width="3"/>
<path fill-rule="evenodd" clip-rule="evenodd" d="M117.851 133.72C118.478 134.248 119.49 137.656 119.731 138.856C120.309 141.304 119.393 142.696 120.309 143.272C123.923 145.625 126.477 148.361 126.043 150.041C127.2 150.473 128.404 150.809 129.657 151.097C130.814 151.337 131.585 150.665 132.934 150.521C134.187 150.329 136.066 150.665 137.175 150.617C138.861 150.569 139.632 148.793 141.174 148.505C143.391 148.025 146.282 148.937 147.728 149.321C149.318 149.705 150.426 150.905 150.908 151.193C151.823 150.569 151.775 147.401 152.739 146.825C154.233 145.865 156.498 146.105 157.606 145.049C158.811 143.896 157.799 140.584 158.473 139.816C159.341 138.808 162.087 139.288 163.967 138.904C165.412 138.616 166.039 137.416 166.424 137.128C166.569 136.024 166.713 134.872 166.665 133.672C166.617 130.552 165.268 127.143 164.4 124.647C162.569 119.223 163.292 111.59 162.906 108.422C162.617 105.638 168.882 101.222 168.352 98.9654C167.725 96.2772 165.894 94.1651 165.316 93.685C163.437 93.9251 161.75 93.157 161.027 93.253C159.437 93.445 157.991 95.2691 156.401 94.9331C155.437 94.6931 155.148 93.637 155.004 92.485C154.811 90.9969 154.715 89.3167 152.594 88.7887C149.944 88.2127 146.812 90.4688 144.788 89.8448C142.475 89.1727 142.764 87.7806 141.319 85.0925C140.885 84.3244 138.042 83.4603 137.512 83.0283C135.97 81.8282 135.44 77.4599 135.102 76.0198C134.669 74.0997 134.428 72.7556 133.705 72.2756C132.934 71.9396 132.163 71.6996 131.392 71.6035C130.862 72.2276 130.139 72.9476 129.416 73.5237C126.236 75.9238 125.513 76.0198 123.971 76.2599C122.333 76.4999 120.695 75.4438 120.02 74.9638C120.068 75.2518 118.719 76.8839 118.671 77.7C118.574 78.9 120.116 80.1001 120.646 80.9642C121.225 81.9242 121.947 82.9803 121.514 83.9404C120.984 85.2365 119.153 86.1485 118.767 87.1566C118.333 88.2607 118.767 90.1808 118.767 90.5168C119.827 91.1409 120.454 92.341 120.55 94.0691C120.646 95.6052 118.478 94.5011 118.189 96.0372C117.9 97.4773 118.382 99.3974 117.996 100.886C117.659 102.182 116.117 103.526 114.671 105.062C113.563 106.262 112.695 107.654 111.298 108.95C109.756 110.438 101.227 109.958 102.239 112.454C103.492 115.623 102.046 119.031 101.805 121.479C101.564 123.831 101.564 123.831 101.709 125.079C101.323 124.983 102.673 125.079 104.311 126.471C106.094 128.007 106.817 130.504 109.081 131.704C111.298 132.856 116.261 132.376 117.851 133.72Z" fill="black" stroke="#FE6E14"/>
<path fill-rule="evenodd" clip-rule="evenodd" d="M174.25 75.4803C173.098 72.855 173.722 72.7596 176.986 71.3276C178.234 70.8026 179.29 69.7048 180.201 68.2251C180.729 67.366 178.09 64.9794 178.522 63.8816C178.858 62.9747 180.009 63.8816 180.345 62.927C180.969 61.1132 178.714 59.9676 179.194 57.9629C179.961 54.8604 186.537 57.1515 187.593 54.3353C189.177 50.0873 185.577 47.7007 187.641 46.221C188.841 45.3619 190.041 45.4096 190.809 43.8345C191.625 42.1161 190.665 39.1568 194.121 37.343C194.696 37.7249 195.848 38.059 196.952 37.1044C197.96 36.1975 198.2 35.577 199.736 32.8563C200.504 31.5198 201.56 30.9948 202.328 31.663C203.624 32.7131 200.888 36.3407 201.752 38.9659C202.328 40.7319 204.2 41.4479 208.712 43.5481C209.959 44.1686 213.559 46.7938 214.519 47.5575C214.279 47.8439 213.463 48.7508 212.455 49.0372C211.735 49.2281 210.439 47.8439 209.575 47.9871C209 48.0825 208.424 49.0372 207.896 50.4214C207.512 51.4237 209.575 53.6194 209.191 54.8604C208.856 56.0059 207.848 56.5787 207.128 57.5333C206.648 58.1538 208.088 64.3589 207.128 66.6977C206.84 67.4137 206.168 67.5091 205.736 68.1297C204.92 69.3229 207.224 77.1986 209.287 79.251C209.767 79.7283 213.127 80.9216 215.911 83.7855C216.775 84.6924 216.487 86.5062 217.399 87.5563C218.263 88.5586 220.567 87.5563 221.479 88.5586C223.207 90.4679 222.199 95.8138 223.542 97.7707C224.406 99.0117 225.558 98.248 226.47 99.0117C225.558 100.205 224.502 101.446 223.447 102.592C222.823 103.26 225.174 107.317 224.55 107.89C222.727 109.608 218.359 108.367 217.927 108.367C216.775 108.367 216.919 110.42 215.143 111.995C213.703 113.283 210.871 106.649 208.664 107.556C207.848 107.89 207.56 104.31 206.36 101.542C205.064 98.6299 202.904 96.4343 202.04 97.3889C201.56 97.9139 200.792 99.2027 199.736 100.157C198.152 101.589 197.528 98.6776 195.656 99.7754C194.648 100.348 192.057 99.8709 189.945 100.157C187.929 100.444 187.737 102.592 185.913 101.351C184.617 100.444 183.945 97.723 182.505 96.0524C181.545 94.9069 179.626 94.8591 178.666 93.6181C177.274 91.8521 177.514 89.2268 176.458 87.2699C176.218 86.7926 175.882 86.3152 175.69 85.8379C175.306 84.8833 177.754 80.3488 177.034 78.8214C175.93 76.6258 175.066 77.3895 174.25 75.4803Z" fill="black" stroke="#FE6E14"/>
<path fill-rule="evenodd" clip-rule="evenodd" d="M257.594 262.406C257.594 262.406 262.578 262.406 261.093 260.275C259.655 258.144 255.821 259.112 258.744 256.545C261.668 254.027 268.905 243.662 273.937 246.617C275.615 247.634 276.813 246.181 275.71 241.531C274.608 236.882 278.634 237.705 278.49 239.449C278.394 241.241 278.49 248.99 278.49 248.99C278.49 248.99 280.599 249.523 279.832 254.996C279.065 260.468 282.756 258.87 279.64 264.876C276.525 270.833 277.484 275.773 277.436 277.468C277.388 279.115 274.608 279.648 274.464 283.135C274.273 286.622 272.308 292.628 271.541 289.431C270.774 286.235 270.582 283.958 268.138 284.588C265.694 285.218 260.613 284.685 265.742 279.357C265.742 279.357 261.045 276.015 262.531 272.092C262.531 272.092 263.154 271.172 261.524 272.092C259.895 273.061 257.882 270.203 260.374 268.557C262.818 266.91 258.457 265.893 257.977 265.748C257.546 265.602 256.54 262.454 257.594 262.406Z" fill="black" stroke="#FE6E14" stroke-width="2"/>
<path fill-rule="evenodd" clip-rule="evenodd" d="M247.037 100.543C246.119 100.257 241.772 98.9245 238.73 96.9727C237.281 97.6391 235.156 98.7341 233.369 98.6865C231.678 98.6389 230.616 97.0203 229.07 97.2583C227.911 97.4487 225.883 98.5437 225.689 98.7817C224.096 100.448 222.695 102.209 222.357 102.543C221.536 103.304 224.434 107.351 223.468 107.922C222.26 108.589 220.908 108.969 219.556 108.731C218.88 108.589 218.252 108.684 217.817 108.493C216.223 107.827 215.644 109.16 215.354 110.207C216.9 111.588 217.431 113.111 216.9 114.111C215.837 116.063 219.508 118.3 218.493 120.252C216.851 123.537 214.871 126.06 214.098 128.821C213.181 132.106 218.01 134.582 218.107 135.629C218.348 138.39 214.774 144.246 215.306 146.531C215.837 148.816 217.576 149.768 218.348 151.244C219.218 152.862 221.681 147.292 222.647 148.625C223.613 149.958 224.82 150.054 225.786 150.91C227.38 152.386 230.616 146.388 232.548 147.197C232.451 146.674 231.871 144.817 232.741 142.675C233.079 141.913 234.093 140.77 234.673 140.151C235.977 138.628 237.522 136.676 237.957 136.105C238.536 135.391 239.985 132.773 241.579 130.535C243.028 128.488 244.815 126.441 245.491 125.536C248.147 121.871 252.542 119.633 252.349 117.491C252.204 116.206 250.659 115.587 250.755 114.539C250.949 112.778 253.17 111.493 253.798 111.159C252.784 110.35 251.818 109.16 250.852 107.874C250.321 107.113 253.798 105.494 253.363 104.732C251.77 101.971 246.747 100.448 247.037 100.543Z" fill="black" stroke="#FE6E14"/>
<path fill-rule="evenodd" clip-rule="evenodd" d="M119.41 74.8826C118.024 73.8194 116.399 72.6113 114.917 71.693C113.578 70.8715 112.479 71.3064 111.618 70.7265C109.467 69.2767 110.519 60.6261 108.75 58.6447C107.507 57.2916 108.846 54.9235 107.746 53.7637C107.22 53.2321 106.647 53.1838 106.121 52.8455C105.643 52.4589 104.256 51.4923 104.591 49.6076C104.878 48.1094 106.408 46.9013 108.224 45.4514C109.037 44.8232 111.331 42.2135 113.339 41.2953C114.582 40.7637 117.355 40.2805 119.315 40.0871C121.753 39.8455 125.051 38.1057 127.441 36.3176C128.35 35.6411 129.975 33.6113 130.74 32.6448C131.17 33.0797 132.078 34.0463 133.13 35.0611C133.991 35.8827 134.994 36.7526 136.094 37.7191C136.476 38.0574 137.002 38.4923 137.624 38.9756C138.006 39.2656 138.58 39.5555 138.819 40.0388C139.01 40.4254 138.962 41.4886 138.867 41.9236C138.58 43.3734 137.91 46.3213 137.863 47.2395C137.863 47.7228 137.719 48.496 137.815 48.931C137.91 49.2693 138.341 49.3176 138.436 49.7042C138.58 50.1875 138.723 50.6708 138.771 51.2507C138.819 52.2656 138.962 54.392 139.01 56.615C139.01 57.7265 139.106 58.838 139.249 59.8046C136.524 60.6261 134.182 64.0574 133.512 67.2953C133.178 68.9867 131.313 70.0982 130.835 71.3064C130.501 72.128 126.963 75.2692 124.573 75.9458C121.705 76.9124 119.745 75.1243 119.41 74.8826Z" fill="black" stroke="#FE6E14"/>
<path fill-rule="evenodd" clip-rule="evenodd" d="M155.854 63.4562C157.836 64.7946 162.332 67.4236 166.103 64.6034C168.424 62.8826 173.984 72.4904 177.223 71.0564C176.111 71.63 174.371 72.108 174.08 72.8728C173.694 73.8288 174.419 74.9282 174.612 75.5496C174.902 76.41 176.208 77.0792 176.643 77.6528C177.32 78.561 177.416 79.2302 177.271 79.8038C176.788 82.146 175.773 84.4404 175.773 85.492C173.694 87.0215 169.246 86.9738 168.472 87.4517C165.765 89.1247 167.505 92.7575 166.055 93.2355C164.605 93.7135 162.332 92.8531 161.607 92.8531C159.77 92.9487 158.126 95.1953 156.676 94.4783C154.452 93.3311 156.434 89.3637 153.34 88.5033C150.197 87.6429 147.248 90.4631 144.783 89.3637C142.269 88.2165 143.09 85.3964 141.012 84.1058C139.271 83.0542 137.917 83.3888 137.047 81.5246C135.597 78.3698 135.548 72.5382 134.001 71.9168C133.034 71.5344 132.261 71.391 131.826 71.3432C131.922 71.152 132.068 70.8652 132.213 70.674C132.648 70.0526 134.098 68.6664 134.437 67.9016C134.775 67.1846 134.872 66.3242 135.162 65.6072C135.548 64.5556 136.129 63.6474 136.612 62.8826C137.724 61.0662 139.706 60.0146 140.48 59.8234C140.673 60.8272 141.06 61.353 141.688 61.114C144.154 60.158 149.182 59.0586 155.854 63.4562Z" fill="black" stroke="#FE6E14" stroke-width="3"/>
<path fill-rule="evenodd" clip-rule="evenodd" d="M194.749 241.355C191.951 237.442 190.6 238.253 187.272 241.259C186.741 241.736 185.535 242.977 184.281 244.122C181.627 246.651 178.057 247.94 175.886 247.558C174.873 248.226 173.04 249.61 170.242 252.234C169.277 253.141 168.698 253.809 168.119 255.145C167.637 256.242 167.733 256.91 168.409 258.151C168.891 259.058 169.229 260.489 169.036 262.732C168.939 264.211 169.663 266.454 170.194 268.172C170.435 268.888 171.4 271.989 171.255 273.373C171.207 273.993 170.966 274.709 170.242 274.518C169.036 274.28 168.312 273.278 166.962 272.8C165.9 272.419 161.124 275.52 159.966 276.236C159.436 276.57 158.23 277.381 153.454 275.186C152.248 274.661 147.858 275.043 146.603 275.377C145.349 275.711 142.117 276.093 140.573 273.85C139.849 272.8 138.933 270.939 138.257 269.89C139.801 269.508 147.279 269.317 147.761 267.074C148.099 265.452 143.226 265.166 142.551 263.018C141.055 258.342 143.178 257.769 142.744 254.906C142.358 252.425 137.196 249.991 136.665 247.749C136.424 246.794 137.148 244.933 138.45 243.454C140.187 241.545 156.252 245.172 158.181 242.213C158.712 241.45 158.037 240.257 158.278 239.35C158.809 237.489 165.563 236.249 166.913 233.243C167.155 232.67 169.904 233.004 171.014 231.668C173.137 229.139 176.465 225.99 176.272 224.606C175.935 222.029 172.751 220.979 171.255 218.498C170.194 216.78 171.014 213.344 169.808 211.674C168.602 210.052 165.707 207.427 165.997 204.469C166.19 202.703 168.747 198.17 170.821 197.884C171.882 197.741 173.378 196.643 174.68 196.882C175.935 197.073 176.803 199.22 178.154 199.697C178.974 199.983 179.601 197.741 180.469 198.075C181.29 198.409 182.737 199.649 183.557 200.174C185.197 201.176 186.162 201.558 187.561 202.512C187.706 203.562 189.25 208.859 190.118 211.579C190.697 213.44 190.793 215.921 194.074 216.112C194.846 216.16 198.705 215.253 201.696 215.11C202.516 215.062 203.24 215.396 203.819 215.539C204.253 215.635 204.687 215.635 204.88 215.683C204.349 215.635 204.349 221.075 209.608 226.324C206.665 226.61 202.709 228.662 202.564 233.481C197.644 237.489 195.521 240.257 194.749 241.355Z" fill="black" stroke="#FE6E14"/>
<path fill-rule="evenodd" clip-rule="evenodd" d="M150.122 150.99C151.652 152.897 155.093 153.483 156.097 155.39C157.053 157.149 156.384 159.545 156.623 160.669C158.009 167.072 153.181 165.019 152.894 168.148C152.512 172.205 156.097 177.826 156.001 180.075C155.906 181.541 151.221 182.274 149.357 184.083C146.872 186.429 147.063 190.291 147.063 191.513C147.063 193.077 145.916 194.544 145.294 195.375C144.96 195.277 143.86 195.179 142.522 195.13C140.706 195.081 138.602 195.228 137.981 194.886C137.025 194.397 136.021 193.713 135.018 193.126C134.109 192.588 133.106 191.855 131.528 193.37C131.576 192.637 130.811 191.415 128.421 190.144C127.848 189.802 127.274 189.313 126.7 188.873C126.7 188.238 126.7 185.598 126.414 183.496C126.175 181.834 125.888 178.902 124.741 176.653C124.645 176.506 124.454 176.115 124.024 176.018C123.546 175.871 122.877 175.969 122.303 175.871C121.968 175.822 121.729 175.48 121.347 175.235C120.821 174.844 120.2 174.502 119.626 174.453C119.244 174.405 118.766 174.502 118.288 174.844C117.714 175.187 117.188 175.724 116.71 175.773C116.089 175.773 115.946 173.965 115.563 172.645C115.324 171.814 114.655 171.129 114.225 171.081C114.416 170.103 114.559 168.294 116.854 166.877C117.475 166.486 119.005 165.655 119.674 164.286C120.152 163.211 119.483 161.891 118.67 160.424C117.905 159.007 116.854 157.638 117.188 156.416C117.427 155.487 118.431 155.047 119.531 154.51C120.248 154.168 121.012 153.874 121.729 153.434C122.924 152.701 123.976 151.821 124.597 151.088C124.741 150.893 124.932 150.746 125.123 150.502C125.266 150.355 125.41 150.11 125.553 149.866C126.318 150.11 127.943 150.697 129.521 150.99C130.046 151.088 130.62 150.795 131.194 150.599C131.911 150.355 132.675 150.208 133.44 150.257C134.492 150.306 135.543 150.355 136.643 150.404C137.933 150.453 139.558 148.155 140.801 148.155C141.136 148.057 141.518 148.057 141.901 148.057C142.522 148.057 143.143 148.106 143.669 148.204C145.247 148.497 146.681 148.791 147.732 149.231C148.592 149.622 149.214 150.11 149.596 150.453C149.931 150.795 150.074 150.941 150.122 150.99Z" fill="black" stroke="#FE6E14"/>
<path fill-rule="evenodd" clip-rule="evenodd" d="M214.001 47.2642C213.76 47.5574 212.943 48.4862 211.933 48.7795C211.212 48.975 209.913 47.5574 209.048 47.7041C208.471 47.8019 207.894 48.7795 207.365 50.197C206.98 51.2235 209.048 53.4721 208.663 54.743C208.327 55.9162 207.317 56.5027 206.596 57.4804C206.115 58.1158 207.557 64.4704 206.596 66.8656C206.307 67.5988 205.634 67.6966 205.201 68.332C204.384 69.5541 206.692 77.6195 208.759 79.7214C209.24 80.2102 212.606 81.4322 215.395 84.3651C216.26 85.2939 215.972 87.1513 216.886 88.2267C217.751 89.2532 220.059 88.2267 220.973 89.2532C222.704 91.2085 221.694 96.6832 223.04 98.6873C223.906 99.9583 225.06 99.1762 225.973 99.9583C226.887 99.2739 228.185 98.1985 229.82 98.1496C231.167 98.1496 232.224 99.4694 233.811 99.6161C235.494 99.7627 237.706 98.6385 239.197 97.8564C242.274 100.007 246.794 101.229 247.467 101.522C249.583 99.2739 253.814 90.4753 253.91 88.0312C254.103 84.1207 248.621 82.752 250.256 80.5035C251.362 78.9393 254.007 79.1837 254.632 77.6195C255.497 75.6153 255.353 73.269 255.016 71.5093C254.632 69.3585 249.775 71.0205 248.381 68.0387C247.419 65.888 249.823 62.8084 252.035 63.1995C254.535 63.6394 254.439 66.279 258.671 65.7902C262.133 65.3991 261.363 64.0305 263.191 62.0752C260.642 60.6576 258.19 58.3602 257.036 58.9468C255.112 59.9244 252.516 61.1465 250.016 60.9021C246.554 60.511 243.861 57.4804 242.995 56.5516C239.726 52.9344 238.091 50.5881 235.542 50.0993C233.619 49.7082 229.916 50.3926 229.147 50.5392C226.695 51.0769 224.483 49.2194 223.137 48.9261C221.165 48.4862 219.819 48.584 219.049 48.9261C218.617 49.1217 218.328 49.5616 217.895 49.6593C216.741 49.8549 215.203 48.0463 214.001 47.2642Z" fill="black" stroke="#FE6E14"/>
<path fill-rule="evenodd" clip-rule="evenodd" d="M137.572 269.773C139.102 269.387 146.512 269.194 146.991 266.925C147.325 265.283 142.496 264.994 141.827 262.821C140.345 258.09 142.449 257.511 142.018 254.614C141.636 252.104 136.52 249.641 135.994 247.372C135.755 246.407 136.472 244.524 137.763 243.027C139.484 241.096 155.405 244.765 157.318 241.772C157.844 241 157.174 239.793 157.413 238.875C157.939 236.993 164.633 235.737 165.972 232.696C166.211 232.116 168.936 232.454 170.036 231.103C172.139 228.544 175.438 225.358 175.247 223.958C174.912 221.351 171.757 220.288 170.275 217.778C169.223 216.04 170.036 212.564 168.84 210.874C167.645 209.233 164.776 206.577 165.063 203.584C165.111 203.246 162.386 195.425 158.943 195.136C158.083 195.087 157.557 197.743 156.648 199.529C155.74 201.267 154.449 202.184 153.589 202.281C152.345 202.426 150.529 202.667 149.525 203.246C148.521 203.826 148.281 204.791 147.469 204.598C146.56 204.405 146.799 202.377 146.512 200.06C146.273 198.177 145.556 196.005 145.317 194.508C143.214 194.025 140.727 194.46 138.719 194.267C136.998 194.074 134.608 191.515 133.078 191.708C132.456 191.756 131.978 192.142 131.5 192.673C130.544 193.736 129.731 195.522 128.679 197.018C126.623 199.963 124.232 202.57 123.802 203.536C123.228 204.695 120.838 204.405 120.455 205.371C119.69 207.253 120.216 209.088 120.216 209.522C120.169 210.536 117.73 211.116 117.539 212.564C117.348 213.964 119.069 217.392 118.065 218.599C116.344 220.723 107.833 221.109 105.634 222.026C104.965 222.316 104.821 223.233 104.104 223.33C100.996 223.668 99.1795 224.633 98.3189 225.454C97.267 226.516 92.4381 223.282 91.7688 225.02C90.2388 228.834 92.1512 235.158 92.0078 236.558C93.9203 237.717 96.0718 239.551 96.5977 242.255C97.2192 245.152 94.1115 251.186 91.7209 252.683C89.9041 253.793 88.5654 258.38 88.8523 260.6C91.0994 259.393 92.2947 260.311 92.4381 260.456C93.2987 261.373 94.1593 262.338 95.0199 263.352C96.5021 265.139 100.709 264.752 102.765 264.704C105.204 264.656 107.833 264.752 109.746 263.98C110.702 263.594 110.75 262.918 111.61 262.338C112.614 261.711 114.383 261.228 115.34 260.987C118.256 260.262 120.886 262.821 121.746 263.497C125.667 266.394 127.866 265.283 130.065 265.477C135.133 266.008 137.142 269.049 137.572 269.773Z" fill="black" stroke="#FE6E14"/>
<path fill-rule="evenodd" clip-rule="evenodd" d="M137.754 7.32809C137.754 7.32809 151.935 3.51535 154.147 2.39108C156.358 1.26681 157.319 4.49298 157.319 5.76389C157.319 7.08369 157.8 9.47888 158.136 9.57664C158.473 9.6744 163.232 13.1939 168.76 12.9495C168.76 12.9495 169.529 19.1085 171.74 20.3794C171.74 20.3794 173.904 18.913 174.865 20.3794C175.778 21.8459 178.086 25.4631 182.316 25.6097C186.546 25.8052 190.536 26.0985 188.998 28.1516C187.46 30.2535 188.277 32.5509 190.104 33.5774C191.017 34.0662 191.93 35.4838 192.892 36.5103C193.036 36.6569 188.998 37.048 185.008 36.3147C182.941 36.0214 181.691 34.2617 179.288 34.2617C176.067 34.2128 172.894 36.9013 170.106 36.7058C168.327 36.5591 169.962 35.386 168.376 35.2393C164.578 34.8972 162.415 36.3147 161.598 35.1416C160.011 32.8442 156.983 33.333 154.675 32.9908C152.993 32.7464 155.685 29.2758 154.05 29.0803C151.503 28.787 149.484 30.449 147.224 30.2535C144.436 30.009 145.253 25.903 143.09 26.1963C139.581 26.6851 136.457 25.8052 136.216 25.512C135.111 24.0944 138.524 21.797 138.427 20.6727C138.283 19.5484 136.697 18.8152 136.697 16.4689C136.649 14.1715 135.495 14.2692 137.754 7.32809Z" fill="black" stroke="#FE6E14"/>
<path fill-rule="evenodd" clip-rule="evenodd" d="M61.7521 119.618C61.6552 119.473 61.3159 118.798 60.5887 118.315C59.7647 117.785 58.4559 117.543 57.5349 117.592C56.3715 117.688 55.0143 118.798 53.657 119.136C52.5906 119.377 51.5726 119.57 50.6516 119.57C49.5367 119.57 48.5188 119.377 47.5978 119.329C47.5978 118.653 48.0825 115.71 48.6157 113.008C49.5852 113.104 51.4757 112.767 53.7539 110.788C55.0143 109.727 57.0017 108.183 58.4074 106.784C59.7162 105.433 64.0789 107.17 65.3392 105.674C66.1148 104.709 67.1327 102.345 68.6354 101.959C71.156 101.283 74.3068 102.827 74.8885 100.945C75.0824 100.222 75.1309 98.1951 76.1488 97.2783C77.5546 96.0238 80.0267 95.8308 79.6874 94.6245C78.4756 90.8127 76.8759 83.9612 79.9782 81.7417C81.5294 80.6319 89.0428 81.3074 93.2116 81.1144C95.5868 81.0179 94.5204 79.4257 97.2349 79.4739C99.5132 79.5222 100.628 84.9262 102.858 85.0227C104.361 85.071 105.524 83.4304 106.978 83.2374C109.741 82.9479 109.547 91.1505 114.54 89.9442C116.431 89.51 117.933 89.5582 119 90.1855C120.066 90.8127 120.696 92.019 120.793 93.756C120.89 95.3 118.709 94.1903 118.418 95.7343C118.127 97.1818 118.612 99.1118 118.224 100.608C117.885 101.91 116.334 103.261 114.879 104.805C113.764 106.012 112.892 107.411 111.486 108.714C109.935 110.209 101.355 109.727 102.373 112.236C103.633 115.42 102.179 118.846 101.937 121.307C101.694 123.671 101.694 123.671 101.84 124.926C100.677 124.685 99.4647 127.435 98.4468 127.29C95.4898 126.856 93.6478 125.167 90.9818 125.215C89.7215 125.264 89.3822 127.242 87.6856 127.628C84.4378 128.4 81.6264 127.58 81.7718 130.571C81.8687 132.453 84.6317 136.168 86.1344 139.642C88.2188 144.467 89.0428 149.196 87.4917 150.498C86.6676 151.222 84.7771 150.354 82.7413 149.244C81.9657 148.81 80.7538 151.56 79.9782 151.126C78.2332 150.112 79.5905 148.086 77.7485 147.748C75.7126 147.362 75.7126 150.112 74.6461 151.126C74.5977 151.174 73.919 149.292 72.6587 149.051C71.8831 148.906 71.1075 148.906 70.1865 148.81C69.0232 148.713 66.648 147.748 64.806 146.59C63.1579 145.577 61.9945 144.371 60.104 143.068C58.4074 141.91 58.6498 137.616 57.341 136.361C56.0322 135.155 53.8024 134.865 52.7845 133.225C52.4452 132.694 52.2997 130.957 53.1238 130.04C53.6085 129.558 54.2387 129.124 54.8204 128.786C55.1112 128.255 55.8868 127.242 54.7719 125.457C54.4326 124.926 52.639 122.658 54.578 120.921C55.7414 119.908 58.0196 120.535 60.3464 121.066C61.7036 121.403 62.0914 120.052 61.7521 119.618Z" fill="black" stroke="#FE6E14" stroke-width="3"/>
<path fill-rule="evenodd" clip-rule="evenodd" d="M155.754 63.4293C157.713 64.7839 162.155 67.4446 165.881 64.5904C168.173 62.8488 173.666 72.5726 176.867 71.1213C178.109 70.5892 179.159 69.4765 180.067 67.9768C180.592 67.106 177.965 64.6871 178.395 63.5744C178.73 62.6553 179.876 63.5744 180.21 62.6069C180.831 60.7685 178.586 59.6075 179.064 57.5756C179.828 54.4311 186.372 56.7532 187.423 53.899C188.999 49.5934 185.417 47.1745 187.471 45.6748C188.665 44.804 189.859 44.8524 190.623 43.2559C191.435 41.5143 190.48 38.5149 193.919 36.6766C193.585 36.4831 193.25 36.1928 192.916 35.8058C193.059 35.9509 189.047 36.338 185.082 35.6123C183.029 35.2253 181.787 33.5321 179.398 33.4837C176.198 33.4353 173.045 36.0961 170.275 35.9026C168.508 35.7574 170.132 34.5964 168.555 34.4512C164.782 34.1126 162.632 35.5155 161.82 34.3545C160.244 32.0807 157.235 32.5645 154.942 32.2259C153.27 31.984 155.945 28.5492 154.321 28.3557C151.79 28.0654 149.783 29.7102 147.538 29.5167C144.768 29.2748 145.58 25.2111 143.43 25.5014C139.944 25.9852 136.839 25.1144 136.6 24.8241C137.412 25.6949 138.128 29.4684 138.128 29.4684C138.128 29.4684 134.88 28.6943 132.014 32.4194C133.017 33.8223 136.266 36.7733 139.848 39.6276C141.138 40.6435 137.985 48.142 139.275 49.1096C141.138 50.4642 139.132 61.9296 141.711 60.9621C144.195 60.0913 149.162 58.9786 155.754 63.4293Z" fill="black" stroke="#FE6E14"/>
<path fill-rule="evenodd" clip-rule="evenodd" d="M84.0152 182.578C89.2957 181.519 90.5069 185.949 91.0882 186.863C91.7664 187.826 93.8496 189.993 94.9154 189.512C98.1127 188.067 101.165 186.575 103.878 185.178C104.992 184.6 103.829 180.7 104.847 180.17C105.816 179.689 106.348 178.918 107.075 178.437C108.335 177.618 109.594 177.185 110.708 176.655C111.435 176.318 110.612 174.44 111.29 173.285C112.113 171.888 114.487 171.166 115.069 171.455C115.117 171.503 115.117 169.192 117.103 167.747C118.217 166.929 120.834 165.677 120.785 163.895C120.688 161.728 117.781 158.984 118.024 157.202C118.217 155.709 120.252 155.324 122.19 154.361C123.886 153.494 125.436 152.05 126.405 150.894C127.47 149.546 125.097 146.56 121.076 143.96C119.913 143.238 120.494 141.793 120.349 140.252C120.155 138.326 119.332 136.256 118.605 134.571C117.83 132.789 112.307 133.511 109.449 132.067C107.075 130.863 105.67 126.096 102.134 125.422C100.971 125.181 99.7599 127.926 98.7425 127.781C95.7874 127.348 93.9465 125.662 91.282 125.711C90.0224 125.759 89.6833 127.733 87.9877 128.118C84.7419 128.889 81.9321 128.07 82.0774 131.056C82.1743 132.933 84.9357 136.641 86.4375 140.108C88.5206 144.923 89.3442 149.642 87.7939 150.942C86.9704 151.664 85.081 150.798 83.0463 149.69C82.2712 149.257 81.0601 152.002 80.2849 151.568C78.5409 150.557 79.8974 148.535 78.0565 148.198C76.0218 147.812 76.0218 150.557 74.956 151.568C74.7622 151.761 73.1151 155.95 76.3124 159.321C77.6689 160.765 75.5858 164.762 74.084 166.592C73.4542 167.362 72.9697 168.662 73.3573 170.299C73.5026 171.021 73.9871 172.033 74.7622 172.129C75.9249 172.322 76.8938 172.707 77.5236 172.996C81.2054 174.537 84.4512 183.493 84.0152 182.578Z" fill="black" stroke="#FE6E14"/>
<path fill-rule="evenodd" clip-rule="evenodd" d="M194.35 241.161C195.406 241.643 195.262 242.414 201.311 242.173C202.511 242.125 203.615 242.51 204.623 243.136C205.199 243.473 206.64 244.533 207.984 244.725C209.472 244.918 211.056 244.725 212.593 244.918C214.849 245.159 217.201 245.352 219.218 246.315C220.322 246.845 221.666 247.712 222.626 248.386C224.69 249.734 227.811 249.831 229.539 250.023C231.267 250.264 231.555 251.757 232.948 252.769C233.86 253.395 234.676 252.335 235.828 251.516C236.548 250.987 237.604 250.601 238.276 250.698C240.101 250.987 241.733 252.72 244.949 249.301C246.534 247.615 249.318 249.542 253.543 247.23C249.414 245.689 252.103 242.655 252.295 242.366C252.775 241.691 254.167 240.246 256.135 238.994C256.711 238.657 257.287 238.224 258.007 237.886C258.488 237.646 259.88 237.357 260.792 236.875C262.04 236.201 263.048 235.334 263.816 233.118C264.152 232.059 264.921 232.107 266.265 231.914C267.993 231.625 269.913 230.807 271.017 229.602C271.786 228.736 272.026 227.724 271.93 226.472C271.882 225.846 272.218 224.112 272.506 223.149C272.794 222.137 273.514 220.548 274.282 219.248C273.994 218.862 273.034 217.658 271.738 217.177C269.913 216.454 269.817 219.536 264.248 217.851C260.456 216.695 256.663 213.324 254.071 209.085C252.631 206.725 254.359 204.51 255.991 201.957C260.216 195.311 249.51 194.299 248.694 189.676C248.07 189.676 247.446 189.579 246.774 189.339C240.005 186.93 238.036 188.761 237.556 189.387C236.452 190.783 242.789 193.914 241.157 195.696C240.101 196.804 236.308 195.311 235.204 196.563C231.507 200.753 228.099 204.413 225.458 207.159C224.498 208.122 223.154 208.315 222.242 208.652C221.042 209.037 220.514 209.471 221.81 209.904C226.131 211.253 226.947 216.213 227.475 217.273C229.635 221.511 220.322 219.392 217.777 219.151C216.049 219.007 217.153 215.202 215.713 214.817C213.361 214.239 210.384 217.369 209.232 217.754C208.32 218.092 207.504 216.021 206.592 215.684C205.92 215.443 205.199 215.443 204.479 215.395C203.951 215.346 203.951 220.837 209.184 226.135C206.256 226.424 202.319 228.495 202.175 233.359C197.278 237.26 195.118 240.054 194.35 241.161Z" fill="black" stroke="#FE6E14" stroke-width="3"/>
<path fill-rule="evenodd" clip-rule="evenodd" d="M216.79 147.275C217.321 149.576 219.059 150.535 219.832 152.022C220.701 153.652 223.163 148.042 224.129 149.384C225.094 150.727 226.301 150.823 227.267 151.686C228.86 153.172 232.095 147.131 234.026 147.946C234.026 148.186 234.123 148.617 234.268 148.953C234.654 149.72 236.103 150.295 234.702 151.878C231.854 155.138 232.433 156.001 234.896 156.481C238.565 157.152 239.965 152.309 239.82 150.439C240.786 149.432 243.297 148.234 243.683 148.138C245.807 147.61 246.145 147.61 249.187 148.33C249.911 152.357 251.36 155.522 252.132 156.912C252.518 157.583 256.767 160.892 256.767 160.892C256.767 160.892 255.174 162.186 254.401 163.289C251.891 166.837 254.305 171.344 256.816 173.454C259.133 175.42 259.471 178.345 259.326 179.735C259.037 183.091 255.995 185.105 253.774 186.208C250.539 187.838 249.766 188.845 249.622 189.516C248.994 189.516 248.366 189.42 247.69 189.181C240.882 186.783 238.903 188.605 238.42 189.229C237.31 190.619 243.683 193.736 242.041 195.51C240.979 196.613 237.165 195.126 236.054 196.373C232.337 200.544 228.909 204.188 226.253 206.921C225.287 207.88 223.935 208.072 223.018 208.408C221.811 208.791 221.28 209.223 222.584 209.654C226.929 210.997 227.75 215.935 228.281 216.99C230.454 221.21 221.087 219.1 218.528 218.86C216.79 218.716 217.9 214.928 216.452 214.545C214.086 213.969 211.092 217.086 209.934 217.47C209.016 217.805 208.196 215.744 207.278 215.408C206.168 214.976 204.768 215.312 203.657 214.88C201.002 213.826 196.511 215.648 194.339 215.6C193.325 215.552 191.683 215.216 191.2 213.586C189.704 208.743 187.483 201.695 187.627 200.161C188.062 195.366 195.835 197.428 195.353 192.729C195.063 190.092 202.933 186.304 200.615 186.208C199.119 186.16 197.815 186.112 196.753 186.064C195.304 185.968 198.346 181.509 196.994 181.557C195.304 181.605 193.711 181.749 192.311 182.037C187.145 183.187 186.42 182.085 187.193 177.577C187.965 172.783 182.751 170.289 182.365 168.995C180.916 164.296 183.427 164.584 183.91 161.371C184.248 159.166 182.896 156.193 183.282 155.426C183.717 154.563 186.517 152.501 187.821 153.46C189.366 154.611 189.752 157.296 191.442 157.967C193.518 158.782 197.284 156.097 197.67 155.474C198.346 154.419 198.587 152.645 199.312 151.926C200.857 150.391 204.526 152.405 205.637 152.213C206.602 152.069 204.719 154.898 206.168 155.09C206.602 155.138 206.844 154.611 207.133 154.275C208.147 153.028 207.616 148.33 208.534 147.227C209.354 146.268 210.127 145.884 210.754 145.117C211.334 144.446 212.444 145.357 213.7 145.884C215.1 146.508 216.693 146.939 216.79 147.275Z" fill="black" stroke="#FE6E14"/>
<path fill-rule="evenodd" clip-rule="evenodd" d="M51.1719 328.974C52.4776 330.181 52.7194 327.96 52.7194 327.96C52.526 326.319 49.8662 327.815 51.1719 328.974Z" fill="black" stroke="#FE6E14" stroke-width="2"/>
<path fill-rule="evenodd" clip-rule="evenodd" d="M82.9447 303.338C84.734 304.449 87.297 301.697 87.4421 300.828C87.3938 300.78 81.1553 302.18 82.9447 303.338Z" fill="black" stroke="#FE6E14" stroke-width="2"/>
<path fill-rule="evenodd" clip-rule="evenodd" d="M73.7076 320.284C73.7076 320.284 68.92 323.132 68.8716 325.015C68.8232 326.898 72.3051 328.829 74.8682 326.174C77.4796 323.519 73.7076 320.284 73.7076 320.284Z" fill="black" stroke="#FE6E14" stroke-width="2"/>
<path fill-rule="evenodd" clip-rule="evenodd" d="M54.9442 327.139C54.9442 327.139 54.1705 326.801 54.0737 327.622C53.977 328.491 55.186 329.071 55.3795 328.105C55.5245 327.188 54.9442 327.139 54.9442 327.139Z" fill="black" stroke="#FE6E14" stroke-width="2"/>
<path fill-rule="evenodd" clip-rule="evenodd" d="M68.2428 301.456C66.0182 302.518 64.7125 298.849 65.2928 296.338C65.8732 293.828 62.0044 290.496 62.0044 290.496C62.0044 290.496 54.2184 295.373 59.8765 298.511C59.8765 298.511 55.1373 298.124 56.8782 302.18C57.652 303.966 52.0422 304.497 52.0422 300.78C52.0422 300.78 49.1406 304.063 46.094 298.559C46.094 298.559 41.5481 301.456 43.5792 306.573C45.562 311.69 45.6587 316.084 45.7554 317.967C45.8522 319.849 47.448 319.125 48.7538 323.374C48.7538 323.374 56.9266 320.38 56.4913 314.829C56.0077 309.277 52.9127 308.601 55.4274 306.911C57.9421 305.221 58.329 308.311 60.747 308.456C63.165 308.649 64.8092 308.456 66.5986 306.235C68.3879 304.014 70.0321 306.235 70.6124 306.911C70.6124 306.911 75.2066 305.076 77.3828 305.656C77.3828 305.656 73.9493 303.966 72.4017 302.421C70.8542 300.924 70.4673 300.393 68.2428 301.456Z" fill="black" stroke="#FE6E14" stroke-width="2"/>
<path fill-rule="evenodd" clip-rule="evenodd" d="M101.681 292.283C101.681 292.283 96.9592 297.43 102.548 301.148C105.294 302.959 101.777 305.056 105.197 308.201C108.618 311.347 112.231 313.063 111.027 316.113C109.774 319.163 109.774 322.737 113.58 324.644C113.58 324.644 112.809 320.545 117.386 322.833C117.386 322.833 119.602 320.212 119.602 323.452C119.602 323.452 123.023 321.451 125.48 324.692C125.48 324.692 128.371 324.358 126.973 326.693C125.576 329.029 128.274 329.362 128.274 329.362C128.274 329.362 130.828 322.976 131.984 322.356C133.14 321.737 127.648 316.16 128.708 314.445C129.334 313.492 127.648 314.874 126.684 314.111C125.721 313.349 127.552 312.824 127.214 311.919C126.877 311.061 124.661 311.395 125.191 309.726C125.721 308.058 125.432 307.439 123.89 308.773C122.3 310.06 118.976 305.104 125.817 305.532C125.817 305.532 118.783 303.197 121.963 301.958C125.143 300.719 123.794 303.34 125.384 301.767C126.973 300.195 128.033 299.146 125.48 299.67C122.927 300.195 120.47 302.101 118.88 299.432C117.29 296.763 110.497 290.043 102.066 292.283" fill="black"/>
<path d="M101.681 292.283C101.681 292.283 96.9592 297.43 102.548 301.148C105.294 302.959 101.777 305.056 105.197 308.201C108.618 311.347 112.231 313.063 111.027 316.113C109.774 319.163 109.774 322.737 113.58 324.644C113.58 324.644 112.809 320.545 117.386 322.833C117.386 322.833 119.602 320.212 119.602 323.452C119.602 323.452 123.023 321.451 125.48 324.692C125.48 324.692 128.371 324.358 126.973 326.693C125.576 329.029 128.274 329.362 128.274 329.362C128.274 329.362 130.828 322.976 131.984 322.356C133.14 321.737 127.648 316.16 128.708 314.445C129.334 313.492 127.648 314.874 126.684 314.111C125.721 313.349 127.552 312.824 127.214 311.919C126.877 311.061 124.661 311.395 125.191 309.726C125.721 308.058 125.432 307.439 123.89 308.773C122.3 310.06 118.976 305.104 125.817 305.532C125.817 305.532 118.783 303.197 121.963 301.958C125.143 300.719 123.794 303.34 125.384 301.767C126.973 300.195 128.033 299.146 125.48 299.67C122.927 300.195 120.47 302.101 118.88 299.432C117.29 296.763 110.497 290.043 102.066 292.283" stroke="#FE6E14" stroke-width="2"/>
<path fill-rule="evenodd" clip-rule="evenodd" d="M155.44 295.924C155.44 295.924 155.635 298.416 153.289 299.785C150.942 301.105 149.916 304.624 150.453 306.286C150.991 307.997 151.627 308.535 151.529 310.588C151.431 312.641 157.004 315.476 156.369 316.991C155.733 318.507 155.049 317.725 154.413 319.924C153.778 322.173 153.435 324.91 151.529 326.181C149.671 327.452 152.947 327.794 154.315 328.527C155.635 329.261 155.733 329.603 157.102 327.745C158.422 325.888 160.133 326.768 161.208 327.305C162.284 327.843 165.755 330.14 167.27 329.114C168.785 328.087 171.279 326.132 171.034 323.248C170.79 320.413 175.874 312.885 177.829 311.077C179.785 309.268 173.918 304.918 171.767 304.82C169.617 304.722 167.368 299.443 166.243 299.345C165.07 299.247 161.844 299.541 160.084 298.025C158.177 296.559 156.222 295.288 155.44 295.924Z" fill="black" stroke="#FE6E14" stroke-width="2"/>
<path fill-rule="evenodd" clip-rule="evenodd" d="M197.188 309.162C197.188 309.162 193.619 309.691 197.188 313.823C200.757 317.956 198.508 319.445 200.121 321.271C201.734 323.097 204.521 322.665 206.721 324.347C208.969 326.029 214.102 329.44 220.115 327.855C221.435 327.518 226.47 328.624 226.177 325.933C225.933 323.194 226.813 319.638 227.35 318.725C227.888 317.764 229.257 316.37 225.102 313.487C223.488 312.382 224.662 310.844 221.728 309.162C218.795 307.48 223.977 305.03 216.644 302.05C209.311 299.071 205.205 300.801 203.494 302.05C201.783 303.3 199.29 304.261 199.046 306.279C198.801 308.297 197.188 309.162 197.188 309.162Z" fill="black" stroke="#FE6E14" stroke-width="2"/>
<path fill-rule="evenodd" clip-rule="evenodd" d="M192.324 35.9123C191.324 34.8513 190.42 33.5009 189.563 33.0186C187.754 32.0058 186.945 29.7391 188.468 27.6652C189.991 25.5914 186.04 25.3021 181.852 25.1574C177.663 24.9645 175.425 21.4438 174.473 19.9969C173.521 18.5501 171.379 19.9969 171.379 19.9969C169.19 18.6948 168.428 12.6662 168.428 12.6662C162.954 12.9074 158.289 9.43491 157.908 9.33846C157.575 9.242 157.099 6.87881 157.099 5.57664C157.099 4.27447 156.195 1.0914 153.957 2.24888C151.768 3.35813 137.725 7.11995 137.725 7.11995C135.488 13.9684 136.631 13.8719 136.678 16.1869C136.726 18.5019 138.297 19.2253 138.392 20.3345C138.535 21.4438 135.155 23.6623 136.202 25.1091C137.011 25.9773 137.725 29.7391 137.725 29.7391C137.725 29.7391 134.489 28.9674 131.632 32.681C132.632 34.0796 135.869 37.0216 139.439 39.867C140.724 40.8798 137.583 48.3552 138.868 49.3198C140.724 50.6702 138.725 62.1003 141.295 61.1358C143.628 60.2676 148.626 59.1584 155.195 63.5954C157.147 64.9458 161.574 67.5984 165.286 64.7529C167.571 63.0167 173.045 72.7106 176.235 71.2637C177.472 70.7332 178.519 69.6239 179.424 68.1289C179.948 67.2608 177.329 64.8493 177.758 63.7401C178.091 62.8237 179.234 63.7401 179.567 62.7755C180.186 60.9428 177.948 59.7854 178.424 57.7598C179.186 54.6249 185.707 56.9399 186.754 54.0944C188.325 49.8021 184.755 47.3907 186.802 45.8956C187.992 45.0275 189.182 45.0757 189.944 43.4842C190.753 41.7479 189.801 38.7578 193.228 36.9251C192.99 36.5875 192.657 36.2981 192.324 35.9123Z" stroke="#FE6E14" stroke-width="3" stroke-linecap="round" stroke-linejoin="round"/>
<path fill-rule="evenodd" clip-rule="evenodd" d="M272.135 64.7465C271.75 63.9795 270.546 63.1166 268.668 63.1166C266.356 63.1166 264.285 62.781 262.985 62.0139C260.432 60.6237 257.976 58.3705 256.82 58.9458C254.893 59.9046 252.293 61.1031 249.788 60.8634C246.32 60.4798 243.623 57.5075 242.756 56.5967C239.481 53.0491 237.844 50.748 235.291 50.2686C233.365 49.885 229.656 50.5562 228.886 50.7C226.43 51.2274 224.214 49.4056 222.866 49.118C220.891 48.6865 219.542 48.7824 218.772 49.118C218.338 49.3097 218.049 49.7412 217.616 49.8371C216.364 50.1247 214.823 48.303 213.618 47.5839C212.607 46.8169 209.043 44.1801 207.791 43.5569C203.312 41.4475 201.385 40.7284 200.807 38.9546C199.94 36.27 202.686 32.6744 201.385 31.6198C200.615 30.9486 199.507 31.4759 198.785 32.8183C197.243 35.5509 197.003 36.1741 195.991 37.085C194.883 38.0917 193.728 37.7082 193.15 37.3247C189.682 39.1464 190.645 42.1187 189.826 43.8445C189.056 45.4266 187.852 45.3786 186.648 46.2416C184.577 47.7277 188.189 50.1247 186.6 54.3914C185.54 57.2199 178.99 54.9188 178.171 58.0349C177.641 60.0484 179.953 61.199 179.327 63.0207C178.99 63.9795 177.834 63.0686 177.497 63.9795C177.064 65.0821 179.712 67.4791 179.183 68.3421C178.268 69.8282 177.208 70.8829 175.956 71.4582C172.681 72.8485 172.103 72.9923 173.211 75.629C174.029 77.4987 174.896 76.7316 175.956 78.9848C176.63 80.471 174.174 85.0732 174.607 86.0321C174.8 86.5115 175.137 86.9909 175.378 87.4703C176.437 89.4358 176.197 92.0246 177.593 93.8463C178.557 95.1407 180.483 95.1407 181.446 96.2913C182.891 97.9692 183.565 100.702 184.866 101.613C186.696 102.907 186.889 100.75 188.911 100.414C191.031 100.079 193.631 100.606 194.643 100.031C196.521 98.928 197.147 101.852 198.736 100.414C199.844 99.4074 200.615 98.113 201.048 97.6336C201.915 96.6748 204.131 98.8321 205.383 101.804C206.587 104.585 206.924 108.181 207.695 107.845C209.91 106.982 212.752 113.598 214.196 112.303C215.978 110.721 215.834 108.66 216.99 108.66C217.423 108.66 221.806 109.906 223.636 108.181C224.262 107.605 221.854 103.53 222.528 102.859C223.588 101.756 224.648 100.51 225.563 99.2636C226.478 98.5924 227.778 97.5377 229.416 97.4898C230.764 97.4898 231.824 98.7842 233.413 98.928C235.099 99.0718 237.314 97.9692 238.807 97.2022C241.89 99.3115 246.417 100.51 247.091 100.798C247.332 100.846 251.907 102.38 253.4 104.921C253.834 105.688 250.366 107.366 250.896 108.085C251.811 109.379 252.822 110.578 253.834 111.393C257.157 113.022 260.095 111.824 260.48 111.536C261.443 110.865 263.611 110.05 263.707 109.331C263.803 108.66 262.936 107.893 262.503 107.27C261.251 105.688 261.058 103.626 261.395 101.709C261.829 99.2157 262.407 97.6336 262.551 97.1542C264.092 92.7916 263.707 91.0179 264.14 88.6208C264.574 86.2718 265.633 82.7242 266.5 80.6148C267.849 77.3549 269.631 73.8552 269.727 73.7114C270.401 72.417 271.317 70.6432 271.798 69.2529C272.858 66.2327 272.28 65.0821 272.135 64.7465Z" stroke="#FE6E14" stroke-width="3" stroke-linecap="round" stroke-linejoin="round"/>
<path fill-rule="evenodd" clip-rule="evenodd" d="M204.063 214.939C203.822 214.891 203.438 214.939 203.005 214.794C202.38 214.649 201.706 214.311 200.889 214.359C197.908 214.504 194.061 215.423 193.291 215.375C190.021 215.181 189.973 212.714 189.348 210.779C188.482 207.973 186.944 202.652 186.799 201.587C185.357 200.62 184.395 200.233 182.808 199.217C181.991 198.685 180.5 197.427 179.73 197.088C178.913 196.75 178.24 199.023 177.422 198.733C176.076 198.249 175.162 196.072 173.96 195.879C172.661 195.637 171.123 196.75 170.113 196.895C168.093 197.233 165.496 201.781 165.304 203.571C165.352 203.232 162.611 195.395 159.149 195.105C158.283 195.056 157.754 197.717 156.841 199.507C155.927 201.249 154.629 202.168 153.763 202.265C152.513 202.41 150.685 202.652 149.676 203.232C148.666 203.813 148.425 204.78 147.608 204.587C146.694 204.393 146.935 202.361 146.646 200.039C146.406 198.153 145.684 195.976 145.444 194.476C143.328 193.992 140.827 194.428 138.808 194.234C137.077 194.041 134.672 191.477 133.133 191.67C132.508 191.718 132.027 192.105 131.546 192.638C130.585 193.702 129.767 195.492 128.709 196.992C126.642 199.943 124.237 202.555 123.804 203.522C123.227 204.684 120.823 204.393 120.438 205.361C119.669 207.248 120.198 209.086 120.198 209.521C120.15 210.537 117.697 211.118 117.505 212.569C117.312 213.972 119.044 217.407 118.034 218.616C116.303 220.745 107.743 221.132 105.531 222.051C104.858 222.341 104.713 223.26 103.992 223.357C100.866 223.696 99.0391 224.663 98.1736 225.486C97.1156 226.55 92.2588 223.309 91.5855 225.05C90.0467 228.872 91.9702 235.21 91.826 236.612C93.7495 237.773 95.9134 239.612 96.4424 242.321C97.0675 245.224 93.9418 251.271 91.5374 252.77C89.7101 253.883 88.3637 258.479 88.6522 260.704C90.9123 259.495 92.1145 260.414 92.2588 260.559C93.1243 261.478 93.9899 262.446 94.8555 263.462C96.3462 265.252 100.578 264.865 102.646 264.816C105.098 264.768 107.743 264.865 109.667 264.091C110.628 263.704 110.676 263.026 111.542 262.446C112.552 261.817 114.331 261.333 115.293 261.091C118.226 260.366 120.871 262.93 121.737 263.607C125.68 266.51 127.892 265.397 130.104 265.59C135.057 266.026 137.077 269.122 137.557 269.848C138.231 270.912 139.144 272.799 139.866 273.863C141.356 276.137 144.626 275.75 145.877 275.411C147.127 275.072 151.503 274.685 152.705 275.217C157.466 277.443 158.668 276.62 159.197 276.282C160.351 275.556 165.112 272.412 166.17 272.799C167.564 273.282 168.237 274.298 169.44 274.54C170.161 274.685 170.401 273.96 170.449 273.379C170.594 271.976 169.584 268.88 169.392 268.106C168.863 266.413 168.093 264.139 168.237 262.591C168.43 260.317 168.141 258.914 167.612 257.947C166.891 256.641 166.843 255.963 167.324 254.899C167.901 253.544 168.526 252.867 169.44 251.948C172.181 249.287 174.008 247.836 175.066 247.207C177.182 247.546 180.74 246.288 183.433 243.724C184.683 242.514 185.886 241.305 186.415 240.821C189.685 237.725 191.079 236.951 193.868 240.918C194.638 239.805 196.802 236.999 201.851 232.936C202.043 228.05 205.938 225.969 208.872 225.679C203.534 220.406 203.534 214.939 204.063 214.939Z" stroke="#FE6E14" stroke-width="3" stroke-linecap="round" stroke-linejoin="round"/>
<path fill-rule="evenodd" clip-rule="evenodd" d="M140.092 56.2273C140.043 54.0088 139.946 51.935 139.849 50.874C139.801 50.2953 139.655 49.813 139.509 49.3307C139.412 48.9931 138.975 48.9449 138.878 48.5591C138.733 48.1251 138.878 47.4016 138.927 46.8711C138.975 45.9548 139.655 43.0129 139.946 41.5661C140.043 41.1321 140.092 40.0711 139.898 39.6853C139.655 39.203 139.121 38.9136 138.684 38.6243C138.053 38.142 137.519 37.7079 137.131 37.3703C136.014 36.4058 134.995 35.5377 134.121 34.7178C133.053 33.7051 132.13 32.7405 131.693 32.3065C130.868 33.271 129.218 35.2966 128.344 35.9717C125.965 37.7562 122.567 39.4923 120.091 39.7335C118.052 39.9264 115.285 40.4087 114.022 40.9392C111.984 41.8073 109.605 44.4115 108.828 45.0867C106.983 46.5335 105.381 47.7392 105.138 49.2343C104.799 51.1152 106.206 52.0797 106.692 52.4655C104.168 54.8769 101.061 57.24 98.8274 57.9634C95.235 59.1691 88.9239 55.118 86.885 54.3946C85.4771 53.9123 82.9527 53.3336 81.5448 54.057C79.3603 55.1663 79.3117 57.5294 78.5835 57.3847C77.3698 57.1436 75.962 51.0669 75.6707 50.0541C75.3309 48.8002 77.8068 47.8357 77.8068 46.3889C77.8068 45.4243 76.3018 43.6399 75.3309 43.7364C74.5541 43.8328 71.8355 45.0867 71.3501 45.3279C70.2335 45.9548 67.8062 45.135 66.8838 44.5562C65.1847 43.4952 62.3204 41.325 62.2233 41.5661C62.0777 41.9519 63.8739 44.8456 64.7963 46.0995C64.6506 48.2697 65.5245 51.4527 66.4954 53.3818C67.078 54.7322 68.0489 55.6968 68.7771 56.9024C69.6995 58.4457 69.8451 59.5067 70.0393 60.8089C70.4277 63.3167 69.9908 65.921 69.8451 66.5962C68.7286 67.9948 68.3887 69.9238 69.1169 71.226C70.1849 73.2515 72.3695 74.8913 73.4376 75.3735C71.9326 76.2899 69.9908 77.6402 68.7771 78.2672C68.68 80.0516 68.5344 81.6913 69.4082 82.2701C70.0393 82.7041 73.0977 81.0161 73.923 80.5821C75.6222 79.6658 76.8358 79.5693 77.7582 79.6658C79.1661 79.8105 79.7486 81.2573 79.9913 81.5467C81.5448 80.4374 89.0696 81.1126 93.2446 80.9197C95.6233 80.8232 94.5553 79.2317 97.2739 79.28C99.5556 79.3282 100.672 84.7297 102.905 84.8261C104.41 84.8743 105.575 83.2346 107.032 83.0417C109.799 82.7523 109.605 90.951 114.605 89.7453C116.498 89.3113 118.003 89.3595 119.071 89.9865C118.926 88.7808 118.78 87.6715 119.071 86.6105C119.508 85.1155 122.081 84.4885 121.936 82.6559C121.838 80.775 119.508 78.9424 119.071 77.9296C118.392 76.3863 120.819 74.6984 120.188 74.2643C120.528 74.5055 122.47 76.2899 125.528 75.4218C127.955 74.7466 131.548 71.6118 131.888 70.7919C132.373 69.5863 134.266 68.477 134.606 66.7891C135.286 63.5578 137.665 60.1337 140.432 59.3138C140.189 58.4457 140.092 57.3365 140.092 56.2273Z" stroke="#FE6E14" stroke-width="3" stroke-linecap="round" stroke-linejoin="round"/>
<path fill-rule="evenodd" clip-rule="evenodd" d="M250.804 115.107C250.997 113.323 253.218 112.021 253.846 111.683C252.832 110.863 251.866 109.658 250.901 108.356C250.369 107.584 253.846 105.944 253.412 105.173C251.818 102.472 246.844 100.929 247.086 101.026C246.168 100.736 241.823 99.3859 238.78 97.4087C237.332 98.0838 235.207 99.193 233.42 99.1448C231.73 99.0966 230.668 97.4569 229.123 97.698C227.964 97.8909 225.936 99.0001 225.743 99.2412C224.149 100.929 222.749 102.713 222.411 103.051C221.59 103.823 224.487 107.922 223.521 108.5C222.314 109.175 220.962 109.561 219.61 109.32C218.934 109.175 218.306 109.272 217.872 109.079C216.278 108.404 215.699 109.754 215.409 110.815C214.781 112.117 214.009 113.033 213.574 112.744C211.739 111.683 210.242 108.838 208.407 108.066C207.828 107.825 207.538 108.356 207.345 108.018C207.2 107.825 207.007 107.488 206.862 107.054C206.283 105.076 205.8 103.099 205.076 101.508C203.965 99.1448 202.468 97.5534 201.454 97.6016C200.44 97.6016 199.04 101.122 197.639 101.026C196.915 100.977 196.046 99.8681 195.177 99.9646C194.694 100.061 194.162 100.399 193.68 100.447C192.134 100.64 190.058 100.495 189.044 100.592C188.223 100.64 187.209 101.363 186.195 102.086C185.809 102.376 185.471 102.135 185.133 102.038C183.877 101.701 182.67 98.2285 181.366 96.5889C180.835 95.9137 178.71 95.0939 177.841 94.467C176.827 93.7919 176.489 92.1522 175.523 88.3907C175.379 87.8602 175.137 87.5227 174.896 87.1369C174.654 86.7511 174.413 86.3171 174.268 86.0759C173.302 86.7993 171.612 87.1369 170.357 87.378C169.149 87.6191 167.99 87.6191 167.17 87.9567C166.832 88.1014 166.59 88.3425 166.349 88.5836C165.238 89.6445 165.48 91.8146 165.19 93.1167C164.997 93.8883 164.562 93.8883 164.369 93.9365C164.948 94.4188 166.783 96.4924 167.411 99.2412C167.942 101.508 161.616 105.944 161.954 108.741C162.293 111.924 161.616 119.592 163.451 125.041C164.272 127.549 165.673 130.973 165.721 134.108C165.721 135.313 165.624 136.519 165.48 137.58C165.286 137.724 167.508 139.412 170.501 140.136C173.64 140.907 177.648 140.714 179.29 140.714C181.27 140.714 180.883 144.09 182.091 146.115C183.443 148.43 186.243 149.588 186.243 150.938C186.243 152.288 185.76 152.867 185.712 153.494C186.436 153.494 187.016 154.073 187.354 154.603C187.885 155.423 188.271 156.243 188.754 156.966C189.382 157.93 189.961 158.365 190.879 158.413C191.458 158.461 191.99 158.268 192.472 158.172C193.535 157.93 194.983 156.966 195.466 156.58C195.804 156.339 196.287 155.953 196.48 155.567C196.722 155.085 196.963 154.458 197.108 153.976C197.398 153.253 197.591 152.578 197.977 152.192C198.605 151.517 199.764 151.565 199.957 151.613C200.826 151.71 201.454 151.854 202.033 151.999C202.371 152.095 203.241 152.385 204.013 152.481C204.255 152.529 204.496 152.433 204.593 152.578C204.689 152.722 204.641 152.963 204.593 153.156C204.544 153.397 204.496 153.687 204.399 153.928C204.206 154.603 204.351 155.037 204.399 155.085C204.593 155.326 204.882 155.519 205.172 155.278C205.51 155.037 205.848 154.555 205.945 154.362C206.09 154.073 206.234 153.88 206.283 153.446C206.331 152.963 206.428 152.481 206.476 152.047C206.572 151.324 206.572 150.456 206.669 149.877C206.766 148.912 206.862 148.237 207.152 147.562C207.297 147.225 208.842 146.019 209.615 145.199C210.146 144.621 212.029 146.019 212.898 146.308C213.96 146.694 215.023 147.176 215.506 147.418C215.506 147.369 215.506 147.369 215.506 147.321C215.506 147.418 215.506 147.466 215.554 147.562C216.085 149.877 217.823 150.841 218.596 152.336C219.465 153.976 221.928 148.334 222.894 149.684C223.859 151.034 225.067 151.131 226.032 151.999C227.626 153.494 230.861 147.418 232.793 148.237C232.696 147.707 232.117 145.826 232.986 143.656C233.324 142.884 234.338 141.727 234.917 141.1C236.221 139.557 237.766 137.58 238.201 137.001C238.78 136.278 240.229 133.625 241.823 131.359C243.271 129.285 245.058 127.211 245.734 126.295C248.39 122.582 252.784 120.315 252.591 118.145C252.253 116.795 250.659 116.168 250.804 115.107Z" stroke="#FE6E14" stroke-width="3" stroke-linecap="round" stroke-linejoin="round"/>
<path fill-rule="evenodd" clip-rule="evenodd" d="M255.306 173.884C252.807 171.776 250.404 167.27 252.903 163.724C253.672 162.621 255.257 161.327 255.257 161.327C255.257 161.327 251.029 158.02 250.645 157.349C249.876 155.959 248.434 152.796 247.714 148.77C244.687 148.051 244.35 148.003 242.236 148.578C241.852 148.674 239.353 149.872 238.392 150.879C238.488 152.748 237.143 157.589 233.491 156.918C231.089 156.486 230.512 155.576 233.299 152.317C234.644 150.735 233.203 150.208 232.866 149.393C232.722 149.058 232.578 148.626 232.626 148.387C230.704 147.572 227.485 153.611 225.899 152.125C224.938 151.214 223.737 151.166 222.776 149.824C221.815 148.482 219.365 154.09 218.5 152.46C217.731 150.975 215.953 150.016 215.473 147.716C215.424 147.38 213.839 146.949 212.349 146.278C211.1 145.703 209.995 144.792 209.418 145.511C208.746 146.278 207.977 146.661 207.208 147.62C206.343 148.722 206.824 153.419 205.815 154.665C205.526 155.001 205.286 155.576 204.854 155.48C203.412 155.288 205.286 152.46 204.325 152.604C203.22 152.748 199.52 150.735 198.031 152.317C197.31 153.084 197.07 154.809 196.397 155.863C196.012 156.486 192.265 159.17 190.199 158.356C188.565 157.733 188.132 155.001 186.595 153.85C186.355 153.659 186.066 153.611 185.73 153.611C185.874 153.227 185.97 152.844 186.162 152.221C186.307 151.789 186.355 151.023 186.21 150.687C185.922 149.92 184.817 149.105 183.904 148.291C183.135 147.572 182.463 146.949 182.078 146.134C181.55 145.079 181.309 143.546 180.925 142.395C180.685 141.724 180.348 141.149 179.964 141.053C179.051 140.766 178.042 140.91 176.985 140.958C175.736 140.958 174.486 140.91 173.381 140.814C170.931 140.622 169.057 139.999 167.615 139.232C166.606 138.705 165.982 138.178 165.597 137.89C164.876 138.801 164.3 139.184 163.531 139.52C162.33 139.999 158.63 139.424 157.765 140.43C157.14 141.197 157.573 142.971 157.477 144.025C157.381 145.223 157.237 145.223 157.092 145.415C156.372 146.901 152.336 146.374 151.663 147.811C151.278 148.578 150.99 150.016 150.75 150.831C150.558 151.502 150.462 151.598 150.173 151.885C151.711 153.755 155.17 154.33 156.179 156.199C157.14 157.924 156.468 160.273 156.708 161.375C158.101 167.654 153.248 165.641 152.96 168.708C152.576 172.686 156.179 178.198 156.083 180.403C155.987 181.841 151.278 182.56 149.405 184.333C146.906 186.633 147.098 190.42 147.098 191.618C147.098 193.152 145.945 194.59 145.32 195.404C145.513 196.459 145.753 197.465 145.993 198.28C146.425 199.766 146.57 201.827 146.666 202.833C146.858 204.846 146.858 205.134 147.579 205.421C147.963 205.565 148.444 204.942 148.972 204.463C149.356 204.127 149.741 203.888 149.981 203.84C150.462 203.696 151.23 203.456 151.999 203.313C152.864 203.169 153.729 203.169 154.258 202.881C157.621 201.204 157.573 195.836 158.966 195.98C160.792 196.171 162.234 198.232 162.858 199.239C164.588 202.019 164.876 203.648 165.165 204.271C165.453 203.073 166.174 201.587 166.558 201.012C167.327 199.862 168.288 198.424 169.489 197.897C169.681 197.801 170.018 197.753 170.21 197.705C170.546 197.609 170.835 197.465 171.123 197.369C171.748 197.178 172.324 196.89 172.901 196.746C173.141 196.698 173.381 196.698 173.573 196.698C174.39 196.603 175.255 197.945 176.216 198.855C176.745 199.382 177.273 199.574 177.513 199.526C177.802 199.478 178.33 198.711 178.715 198.232C178.907 197.993 179.147 197.897 179.195 197.897C179.724 197.801 181.454 199.287 182.126 199.718C184.385 201.156 185.442 201.635 186.547 202.354C186.547 202.354 186.547 202.354 186.547 202.306C187.123 205.086 188.709 210.214 189.91 214.001C190.391 215.63 192.024 215.966 193.033 216.014C195.244 216.109 199.664 214.288 202.307 215.295C203.412 215.726 204.806 215.391 205.911 215.822C206.824 216.157 207.592 218.218 208.553 217.883C209.707 217.451 212.638 214.384 215.04 214.959C216.482 215.295 215.328 219.081 217.106 219.273C219.653 219.512 228.974 221.621 226.812 217.404C226.284 216.349 225.467 211.412 221.142 210.07C219.845 209.687 220.374 209.256 221.575 208.824C222.488 208.489 223.833 208.345 224.794 207.339C227.437 204.607 230.848 200.964 234.548 196.794C235.653 195.548 239.449 197.034 240.506 195.932C242.14 194.158 235.797 191.043 236.903 189.653C237.431 189.03 239.401 187.161 246.128 189.605C246.753 189.845 247.425 189.941 248.05 189.941C248.194 189.222 248.915 188.215 252.182 186.633C254.393 185.531 257.42 183.518 257.708 180.163C257.9 178.773 257.612 175.802 255.306 173.884Z" stroke="#FE6E14" stroke-width="3" stroke-linecap="round" stroke-linejoin="round"/>
<path d="M131.671 193.353C133.25 191.854 134.303 192.579 135.165 193.111C136.17 193.691 137.176 194.368 138.133 194.851C138.755 195.19 140.862 195.045 142.681 195.093C144.069 195.093 145.122 195.238 145.457 195.335C146.08 194.513 147.229 193.063 147.229 191.516C147.229 190.308 147.037 186.489 149.527 184.169C151.394 182.428 156.085 181.703 156.181 180.205C156.324 177.981 152.686 172.422 153.069 168.41C153.356 165.268 158.191 167.347 156.803 161.015C156.564 159.903 157.186 157.534 156.276 155.794C155.271 153.909 151.824 153.329 150.292 151.444C150.245 151.395 150.101 151.299 149.766 151.009C149.383 150.67 148.761 150.187 147.899 149.8C146.846 149.317 145.41 149.027 143.83 148.785C143.303 148.688 142.681 148.592 142.059 148.64C141.676 148.64 141.293 148.64 140.958 148.737C139.713 148.688 138.085 151.009 136.793 150.96C135.692 150.912 134.639 150.864 133.585 150.815C132.819 150.767 132.054 150.912 131.335 151.154C130.761 151.347 130.187 151.589 129.66 151.54C128.032 151.25 126.453 150.67 125.687 150.429C126.261 148.978 123.915 146.175 120.277 143.806C119.128 143.081 119.703 141.631 119.559 140.084C119.368 138.151 118.554 136.072 117.836 134.38C117.07 132.592 111.612 133.317 108.788 131.867C106.442 130.658 105.054 125.873 101.559 125.196C100.411 124.954 99.2138 127.71 98.2085 127.565C95.2884 127.13 93.4692 125.438 90.8363 125.486C89.5917 125.534 89.2566 127.516 87.5811 127.903C84.3737 128.676 81.5972 127.855 81.7408 130.852C81.8365 132.737 84.5652 136.459 86.0492 139.939C88.1077 144.773 88.9215 149.51 87.3896 150.815C86.5758 151.54 84.7088 150.67 82.6982 149.558C81.9323 149.123 80.7355 151.879 79.9695 151.444C78.2462 150.429 79.5866 148.398 77.7675 148.06C75.7569 147.673 75.7569 150.429 74.7037 151.444C74.5122 151.637 72.8846 155.842 76.0441 159.226C77.3845 160.676 75.326 164.688 73.842 166.525C73.2197 167.299 72.741 168.604 73.1239 170.247C73.2676 170.972 73.7463 171.987 74.5122 172.084C75.6611 172.277 76.6186 172.664 77.2409 172.954C80.3525 174.356 83.2727 181.752 83.512 182.525C83.512 182.525 83.512 182.525 83.4641 182.525C84.278 184.265 85.379 189.147 85.9535 191.903C85.2354 192.434 83.6556 190.356 81.0706 183.299C80.3525 181.365 77.4802 175.661 72.9803 176.531C74.0814 178.271 73.842 183.83 73.7941 188.229C73.7941 189.873 73.6027 193.16 72.8367 195.093C71.8793 196.543 71.5442 196.785 70.4432 200.604C72.2623 199.975 74.3207 200.072 74.9909 202.199C75.2782 203.069 75.2303 204.036 74.7037 204.567C74.4643 204.809 71.8314 205.341 70.9219 206.598C70.5868 207.081 69.9644 208.434 69.9166 209.159C69.7251 210.996 69.6772 211.625 69.1028 214.718C68.8155 216.459 68.3847 218.73 67.9538 221.099C67.6666 222.694 67.2836 224.579 67.0922 225.691C66.7092 227.721 66.1826 231.008 65.4167 232.942C65.0337 233.86 64.555 234.44 64.0763 235.407C63.5497 236.471 63.5976 237.002 63.4539 237.969C63.3582 238.839 63.071 239.903 62.2572 240.724C60.6774 242.271 58.2838 243.77 57.3264 244.011C57.8051 245.123 59.1455 246.67 60.9646 246.863C61.4433 246.912 62.5444 246.815 63.3103 247.298C63.9327 247.685 64.4114 248.7 64.0284 251.069C63.9805 251.407 63.5976 253.341 64.2199 253.486C64.6986 253.582 66.1347 252.422 66.7092 251.6C68.2411 253.341 71.0176 254.887 73.8899 256.289C74.2729 256.483 77.5281 257.594 80.2568 257.691C80.927 257.739 81.9801 258.223 82.2674 259.141C82.5067 259.866 83.0812 261.365 83.8471 261.558C84.9482 261.896 86.1928 262.09 87.1502 262.041C87.8683 261.993 88.2991 261.896 89.0172 261.655C88.73 259.431 90.0704 254.839 91.8895 253.727C94.2831 252.229 97.3947 246.187 96.7724 243.286C96.1979 240.579 94.0437 238.742 92.1767 237.582C92.3203 236.18 90.4055 229.848 91.9374 226.029C92.6554 224.289 97.4426 227.528 98.4957 226.465C99.3096 225.643 101.177 224.676 104.288 224.338C105.006 224.241 105.15 223.323 105.82 223.033C108.022 222.114 116.543 221.727 118.267 219.6C119.224 218.392 117.549 214.96 117.74 213.558C117.931 212.156 120.373 211.528 120.421 210.513C120.421 210.078 119.894 208.193 120.66 206.356C121.043 205.389 123.485 205.679 124.011 204.519C124.49 203.552 126.883 200.942 128.894 197.993C129.947 196.495 130.761 194.706 131.718 193.643" stroke="#FE6E14" stroke-width="3" stroke-linecap="round" stroke-linejoin="round"/>
</svg>
